<svg xmlns="http://www.w3.org/2000/svg" width="1200" height="1200" viewBox="0 0 1200 1200" version="1.1"><path d="M 569.500 6.695 C 502.784 10.221, 432.828 26.723, 369 53.991 C 283.959 90.321, 205.356 149.514, 145.899 222 C 68.634 316.198, 23.280 428.653, 13.414 550.500 C 11.364 575.805, 11.928 634.602, 14.435 657 C 19.667 703.755, 27.868 741.561, 41.986 784 C 71.330 872.207, 118.956 949.183, 184.932 1015.037 C 282.741 1112.666, 403.577 1170.053, 544 1185.565 C 563.608 1187.732, 619.473 1188.605, 641.543 1187.091 C 757.105 1179.163, 864.675 1139.453, 956.526 1070.813 C 1068.544 987.102, 1147.797 865.793, 1178.856 730.500 C 1184.813 704.551, 1188.657 680.696, 1191.668 651 C 1194.156 626.458, 1194.149 567.777, 1191.655 543 C 1179.198 419.225, 1134.358 311.766, 1055.624 217 C 1040.626 198.948, 1002.900 160.996, 985.147 146.101 C 885.661 62.631, 769.945 16.003, 640 7.022 C 626.822 6.111, 584.281 5.914, 569.500 6.695 M 578.500 41 C 391.137 49.486, 222.188 150.004, 125.559 310.481 C 48.292 438.801, 26.282 593.892, 64.603 740 C 76.706 786.145, 99.393 840.441, 122.683 879 C 134.585 898.705, 152.699 926.121, 157.041 931 C 158.753 932.925, 161.184 936.082, 162.441 938.015 C 165.498 942.713, 166.864 943.732, 171.539 944.801 C 173.718 945.299, 192.825 951.682, 214 958.986 C 399.416 1022.940, 454.324 1038.594, 517.523 1045.519 C 550.602 1049.144, 595.549 1049.119, 628 1045.458 C 697.608 1037.604, 763.263 1012.492, 828.356 968.826 C 876.703 936.393, 904.695 903.991, 927.583 853.963 C 957.951 787.588, 968.850 713.069, 958.994 639.201 C 954.504 605.549, 942.355 571.344, 928.845 554.322 C 918.463 541.240, 901.773 527.858, 886 519.968 C 868.177 511.053, 832.051 501.956, 806.579 499.969 L 792.500 498.870 776.164 504.191 L 759.828 509.511 755.416 523.006 C 750.003 539.561, 740.244 559.353, 731.259 572 C 722.378 584.499, 703.841 602.988, 692.883 610.276 C 675.134 622.081, 661.221 626.833, 641.846 627.708 L 629.191 628.280 617.469 659.390 C 603.034 697.698, 565.393 792.097, 553.227 820.500 C 548.279 832.050, 540.075 850.500, 534.995 861.500 C 529.916 872.500, 523.156 887.483, 519.975 894.795 C 512.716 911.477, 509.023 917.695, 501.646 925.658 C 494.637 933.224, 486.339 937.674, 476.378 939.208 C 470.433 940.124, 468.483 939.995, 462 938.254 C 425.378 928.422, 420.286 926.674, 403.023 918.011 C 383.625 908.277, 359.269 890.110, 340.246 871.185 C 327.550 858.555, 286.809 810.588, 288.451 810.204 C 289.149 810.041, 305.420 811.549, 324.610 813.556 C 379.051 819.249, 409.909 819.243, 423.567 813.537 C 430.221 810.756, 433.254 800.327, 434.485 776 C 434.833 769.125, 436.013 754.275, 437.108 743 C 440.376 709.347, 440.977 696.999, 439.956 684.476 C 438.709 669.167, 436.141 661.788, 424.134 639 C 406.067 604.711, 401.232 591.226, 400.291 572.500 C 399.927 565.258, 400.236 560.598, 401.414 555.603 C 402.308 551.810, 402.839 548.506, 402.595 548.262 C 402.351 548.017, 401.218 548.113, 400.079 548.475 C 397.131 549.411, 393.362 556.368, 388.824 569.253 C 382.760 586.468, 378.782 593.336, 369.557 602.522 C 349.737 622.257, 326.301 626.026, 297.817 614.059 C 292.375 611.772, 290.412 611.331, 289.830 612.263 C 288.478 614.430, 287.688 622.278, 288.656 623.918 C 289.170 624.788, 299.793 633.127, 312.264 642.448 C 324.734 651.769, 334.754 659.579, 334.530 659.803 C 333.559 660.775, 279.717 666.984, 272.197 666.992 C 267.631 666.996, 260.656 666.287, 256.697 665.416 C 247.922 663.484, 232.986 656.446, 227.341 651.583 C 225.054 649.612, 222.864 648, 222.475 648 C 220.803 648, 222.717 660.770, 225.173 666 C 229.193 674.562, 252.051 704.676, 257.438 708.506 C 260.870 710.946, 261.638 711.925, 260.473 712.372 C 259.243 712.844, 259.142 713.396, 259.992 714.985 C 260.585 716.093, 260.888 717, 260.665 717 C 260.442 717, 246.666 714.275, 230.053 710.945 C 192.265 703.370, 181.700 699.857, 168.430 690.456 C 159.335 684.013, 151.601 675.090, 147.107 665.852 L 143.180 657.783 139.648 665.141 C 132.916 679.167, 130.081 689.914, 124.757 721.597 C 121.946 738.319, 119.389 751.984, 119.073 751.964 C 117.637 751.872, 84.983 704.061, 80.730 695.823 C 63.303 662.065, 61.764 622.277, 76.145 577.287 C 86.884 543.692, 103.684 523.182, 134.977 505.464 C 148.967 497.543, 159.138 493.754, 181.601 488.097 C 213.596 480.039, 238.401 471.028, 262 458.891 C 279.216 450.037, 291.488 441.264, 305.590 427.727 C 326.164 407.978, 337.277 388.032, 343.987 358.812 C 347.866 341.922, 350.306 334.445, 355.109 324.732 C 360.671 313.483, 366.412 305.391, 374.073 298 C 386.312 286.193, 399.746 280.074, 418.114 277.938 C 434.455 276.038, 449.756 277.695, 478 284.422 C 481.575 285.274, 485.040 285.977, 485.700 285.985 C 486.360 285.993, 490.041 281.387, 493.881 275.750 C 518.741 239.250, 556.539 201.352, 593.500 175.870 C 643.216 141.592, 699.515 119.675, 758 111.830 C 779.695 108.920, 819.784 108.661, 839 111.307 C 856.349 113.696, 881.584 118.998, 892.623 122.573 C 896.010 123.670, 884.788 116.821, 869 108.156 C 781.648 60.215, 678.867 36.454, 578.500 41 M 743.500 128.997 C 706.406 130.882, 680.212 140.229, 633.500 168.248 C 600.305 188.160, 584.773 200.121, 559.892 224.934 C 537.384 247.381, 518.449 270.978, 502.027 297.050 C 497.306 304.545, 496.323 305.563, 494.070 305.293 C 456.729 300.819, 440.040 298.657, 433.640 297.465 C 413.711 293.751, 400.272 297.449, 388.833 309.791 C 378.613 320.818, 374.169 330.756, 362.357 369 C 349.429 410.854, 344.866 421.219, 332.101 437.724 C 319.035 454.616, 302.245 468.522, 285.079 476.668 C 268.060 484.744, 252.723 489.763, 206.500 502.381 C 158.520 515.478, 141.649 521.739, 129.383 531.001 C 116.604 540.648, 98.685 576.717, 90.958 608.343 C 86.976 624.639, 85.527 638.867, 87.011 647.097 C 89.258 659.564, 100.377 689.822, 105.694 697.937 C 107.273 700.346, 107.375 700.125, 110.541 687.449 C 116.259 664.550, 126.055 644.060, 136.142 633.899 C 142.146 627.851, 153.331 621.625, 160.393 620.399 C 164.270 619.727, 164.283 619.736, 163.658 622.612 C 161.292 633.493, 160.747 641.243, 161.871 648.047 C 164.070 661.365, 170.109 669.156, 183.750 676.275 C 192.442 680.811, 206.974 685.426, 208.321 684.079 C 208.976 683.424, 208.442 681.125, 206.742 677.294 C 202.070 666.763, 201 661.401, 201 648.529 C 201 630.727, 205.069 617.814, 213.767 608.012 L 217.538 603.763 222.242 613.240 C 232.296 633.493, 248.344 644.450, 269.848 645.743 L 279.196 646.306 274.737 639.793 C 269.113 631.579, 266.077 622.751, 265.319 612.407 C 264.562 602.084, 266.080 595.676, 271.043 588.251 C 278.122 577.660, 275.774 578.301, 292.683 582.341 C 311.999 586.955, 323.999 588.993, 331.885 588.997 L 338.270 589 346.945 580.250 C 356.152 570.964, 367.560 557.129, 377.856 542.763 C 385.066 532.703, 392.434 526.832, 400.913 524.391 C 403.986 523.507, 412.003 520.808, 418.730 518.393 C 432.993 513.273, 445.102 509.671, 453.809 507.958 C 462.648 506.219, 484.396 507.231, 494.175 509.836 C 501.629 511.821, 517.426 517.907, 516.786 518.547 C 516.612 518.722, 512.876 518.360, 508.484 517.743 C 504.093 517.126, 489.642 516.594, 476.372 516.560 L 452.244 516.500 446.549 520.422 C 434.954 528.407, 426.548 541.147, 425.384 552.500 C 424.669 559.471, 426.284 576.116, 429.089 590.695 C 431.471 603.071, 436.465 615.348, 447.574 636.139 C 457.834 655.340, 461.225 664.866, 461.227 674.500 C 461.230 683.996, 459.183 734.556, 457.948 755.500 C 456.134 786.253, 452.418 812.277, 448.500 821.655 C 445.306 829.301, 438.957 833.440, 425.818 836.440 C 418.789 838.045, 399.602 839.991, 390.761 839.997 C 381.123 840.002, 370 845.477, 370 850.214 C 370 854.683, 376.861 865.270, 388.911 879.395 C 397.717 889.717, 399.011 890.606, 417 898.706 C 457.562 916.969, 474.995 919.142, 486.207 907.332 C 492.695 900.498, 521.914 832.686, 596.472 651.428 L 616.246 603.357 621.373 604.749 C 629.186 606.870, 646.267 605.838, 657.500 602.566 C 668.827 599.266, 686.753 590.475, 695.213 584.071 C 707.687 574.628, 717.314 561.931, 726.469 542.846 C 736.822 521.265, 744.505 493.054, 745.900 471.500 C 746.729 458.682, 745.688 435.049, 743.949 427.241 C 740.834 413.257, 725.967 386.075, 706.466 358.711 C 701.845 352.227, 698.612 347.250, 699.282 347.650 C 720.186 360.157, 742.132 374.665, 749.289 380.708 C 762.669 392.007, 781.553 411.204, 788.925 421 C 797.026 431.764, 806.686 451.553, 812.354 468.996 L 816.740 482.493 829.620 485.143 C 852.171 489.782, 879.491 498.700, 899.562 507.972 C 906.693 511.267, 908.491 512.687, 914.915 520.102 C 929.507 536.942, 937.862 549.645, 948.935 571.829 C 976.140 626.331, 986.315 683.893, 979.946 747.268 C 971.818 828.149, 941.090 895.792, 888.510 948.550 C 831.996 1005.256, 753.564 1043.669, 651 1064.873 C 584.836 1078.552, 513.578 1074.502, 423.872 1051.965 C 350.437 1033.516, 252.287 993.908, 183 954.762 C 176.675 951.188, 171.337 948.406, 171.137 948.579 C 170.585 949.057, 184.371 965.044, 196.938 978.500 C 272.882 1059.813, 376.060 1118.313, 484.262 1141.408 C 525.540 1150.218, 561.069 1153.980, 603 1153.980 C 707.376 1153.980, 807.658 1125.490, 896 1070.738 C 1027.551 989.207, 1119.867 855.798, 1149.428 704.500 C 1164.122 629.298, 1163.076 550.540, 1146.387 475.500 C 1132.312 412.214, 1107.579 352.940, 1071.532 296.102 L 1063.669 283.703 1047.364 284.372 C 1038.396 284.739, 1030.319 285.324, 1029.413 285.672 C 1026.308 286.863, 1029.550 282.678, 1039.399 272.782 L 1048.907 263.227 1037.704 249.223 C 1023.183 231.073, 1006.188 212.321, 990.611 197.264 L 978.157 185.227 956.829 184.527 C 935.110 183.814, 919.848 184.621, 900.705 187.494 C 889.359 189.198, 851.700 197.340, 844.500 199.647 C 829.647 204.406, 778.044 226.263, 765 233.320 C 757.842 237.192, 741.973 248.042, 719.135 264.678 C 697.975 280.091, 698.379 280.256, 708.048 260.146 C 725.602 223.633, 755.204 191.315, 791.864 168.638 C 796.971 165.479, 804.933 161.369, 809.559 159.504 C 830.238 151.168, 862.113 146.104, 895 145.930 L 909.500 145.854 904 143.843 C 900.975 142.737, 892.757 140.362, 885.737 138.564 C 873.808 135.510, 873.188 135.234, 876.237 134.333 C 879.683 133.315, 872.969 132.439, 842.500 129.931 C 826.205 128.589, 763.213 127.995, 743.500 128.997 M 922.500 162.043 C 908.512 162.477, 895.582 163.432, 889.500 164.482 C 876.698 166.692, 859.354 171.923, 846 177.601 C 835.056 182.254, 828.767 185.510, 832.500 184.591 C 833.600 184.320, 838.100 183.211, 842.500 182.127 C 872.457 174.747, 901.124 171.068, 935.962 170.131 L 959.424 169.500 954.081 165.250 C 951.143 162.912, 948.010 161.074, 947.119 161.165 C 946.229 161.256, 935.150 161.651, 922.500 162.043 M 422.108 343.182 C 410.454 374.474, 399.043 396.141, 382.799 417.820 C 378.014 424.207, 374.218 429.551, 374.363 429.697 C 374.685 430.018, 429.925 407.408, 430.692 406.642 C 431.199 406.134, 428.178 329.844, 427.628 329.295 C 427.489 329.155, 425.005 335.405, 422.108 343.182 M 164.746 547.746 C 151.136 553.569, 140.113 558.425, 140.250 558.537 C 140.388 558.649, 150.850 557.692, 163.500 556.409 C 176.150 555.126, 187.015 554.060, 187.644 554.039 C 188.372 554.014, 188.943 550.997, 189.212 545.750 C 189.445 541.212, 189.604 537.423, 189.565 537.330 C 189.525 537.236, 178.357 541.924, 164.746 547.746" stroke="none" fill="#3e231f" fill-rule="evenodd"/><path d="M 743.500 128.997 C 706.406 130.882, 680.212 140.229, 633.500 168.248 C 600.305 188.160, 584.773 200.121, 559.892 224.934 C 537.384 247.381, 518.449 270.978, 502.027 297.050 C 497.306 304.545, 496.323 305.563, 494.070 305.293 C 456.729 300.819, 440.040 298.657, 433.640 297.465 C 413.711 293.751, 400.272 297.449, 388.833 309.791 C 378.613 320.818, 374.169 330.756, 362.357 369 C 349.429 410.854, 344.866 421.219, 332.101 437.724 C 319.035 454.616, 302.245 468.522, 285.079 476.668 C 268.060 484.744, 252.723 489.763, 206.500 502.381 C 158.520 515.478, 141.649 521.739, 129.383 531.001 C 116.604 540.648, 98.685 576.717, 90.958 608.343 C 86.976 624.639, 85.527 638.867, 87.011 647.097 C 89.258 659.564, 100.377 689.822, 105.694 697.937 C 107.273 700.346, 107.375 700.125, 110.541 687.449 C 116.259 664.550, 126.055 644.060, 136.142 633.899 C 142.146 627.851, 153.331 621.625, 160.393 620.399 C 164.270 619.727, 164.283 619.736, 163.658 622.612 C 161.292 633.493, 160.747 641.243, 161.871 648.047 C 164.070 661.365, 170.109 669.156, 183.750 676.275 C 192.442 680.811, 206.974 685.426, 208.321 684.079 C 208.976 683.424, 208.442 681.125, 206.742 677.294 C 202.070 666.763, 201 661.401, 201 648.529 C 201 630.727, 205.069 617.814, 213.767 608.012 L 217.538 603.763 222.242 613.240 C 232.296 633.493, 248.344 644.450, 269.848 645.743 L 279.196 646.306 274.737 639.793 C 269.113 631.579, 266.077 622.751, 265.319 612.407 C 264.562 602.084, 266.080 595.676, 271.043 588.251 C 278.122 577.660, 275.774 578.301, 292.683 582.341 C 311.999 586.955, 323.999 588.993, 331.885 588.997 L 338.270 589 346.945 580.250 C 356.152 570.964, 367.560 557.129, 377.856 542.763 C 385.066 532.703, 392.434 526.832, 400.913 524.391 C 403.986 523.507, 412.003 520.808, 418.730 518.393 C 432.993 513.273, 445.102 509.671, 453.809 507.958 C 462.648 506.219, 484.396 507.231, 494.175 509.836 C 501.629 511.821, 517.426 517.907, 516.786 518.547 C 516.612 518.722, 512.876 518.360, 508.484 517.743 C 504.093 517.126, 489.642 516.594, 476.372 516.560 L 452.244 516.500 446.549 520.422 C 434.954 528.407, 426.548 541.147, 425.384 552.500 C 424.669 559.471, 426.284 576.116, 429.089 590.695 C 431.471 603.071, 436.465 615.348, 447.574 636.139 C 457.834 655.340, 461.225 664.866, 461.227 674.500 C 461.230 683.996, 459.183 734.556, 457.948 755.500 C 456.134 786.253, 452.418 812.277, 448.500 821.655 C 445.306 829.301, 438.957 833.440, 425.818 836.440 C 418.789 838.045, 399.602 839.991, 390.761 839.997 C 381.123 840.002, 370 845.477, 370 850.214 C 370 854.683, 376.861 865.270, 388.911 879.395 C 397.717 889.717, 399.011 890.606, 417 898.706 C 457.562 916.969, 474.995 919.142, 486.207 907.332 C 492.695 900.498, 521.914 832.686, 596.472 651.428 L 616.246 603.357 621.373 604.749 C 629.186 606.870, 646.267 605.838, 657.500 602.566 C 668.827 599.266, 686.753 590.475, 695.213 584.071 C 707.687 574.628, 717.314 561.931, 726.469 542.846 C 736.822 521.265, 744.505 493.054, 745.900 471.500 C 746.729 458.682, 745.688 435.049, 743.949 427.241 C 740.834 413.257, 725.967 386.075, 706.466 358.711 C 701.845 352.227, 698.612 347.250, 699.282 347.650 C 720.186 360.157, 742.132 374.665, 749.289 380.708 C 762.669 392.007, 781.553 411.204, 788.925 421 C 797.026 431.764, 806.686 451.553, 812.354 468.996 L 816.740 482.493 829.620 485.143 C 852.171 489.782, 879.491 498.700, 899.562 507.972 C 906.693 511.267, 908.491 512.687, 914.915 520.102 C 929.507 536.942, 937.862 549.645, 948.935 571.829 C 976.140 626.331, 986.315 683.893, 979.946 747.268 C 971.818 828.149, 941.090 895.792, 888.510 948.550 C 831.996 1005.256, 753.564 1043.669, 651 1064.873 C 584.836 1078.552, 513.578 1074.502, 423.872 1051.965 C 350.437 1033.516, 252.287 993.908, 183 954.762 C 176.675 951.188, 171.337 948.406, 171.137 948.579 C 170.585 949.057, 184.371 965.044, 196.938 978.500 C 272.882 1059.813, 376.060 1118.313, 484.262 1141.408 C 525.540 1150.218, 561.069 1153.980, 603 1153.980 C 707.376 1153.980, 807.658 1125.490, 896 1070.738 C 1027.551 989.207, 1119.867 855.798, 1149.428 704.500 C 1164.122 629.298, 1163.076 550.540, 1146.387 475.500 C 1132.312 412.214, 1107.579 352.940, 1071.532 296.102 L 1063.669 283.703 1047.364 284.372 C 1038.396 284.739, 1030.319 285.324, 1029.413 285.672 C 1026.308 286.863, 1029.550 282.678, 1039.399 272.782 L 1048.907 263.227 1037.704 249.223 C 1023.183 231.073, 1006.188 212.321, 990.611 197.264 L 978.157 185.227 956.829 184.527 C 935.110 183.814, 919.848 184.621, 900.705 187.494 C 889.359 189.198, 851.700 197.340, 844.500 199.647 C 829.647 204.406, 778.044 226.263, 765 233.320 C 757.842 237.192, 741.973 248.042, 719.135 264.678 C 697.975 280.091, 698.379 280.256, 708.048 260.146 C 725.602 223.633, 755.204 191.315, 791.864 168.638 C 796.971 165.479, 804.933 161.369, 809.559 159.504 C 830.238 151.168, 862.113 146.104, 895 145.930 L 909.500 145.854 904 143.843 C 900.975 142.737, 892.757 140.362, 885.737 138.564 C 873.808 135.510, 873.188 135.234, 876.237 134.333 C 879.683 133.315, 872.969 132.439, 842.500 129.931 C 826.205 128.589, 763.213 127.995, 743.500 128.997 M 422.108 343.182 C 410.454 374.474, 399.043 396.141, 382.799 417.820 C 378.014 424.207, 374.218 429.551, 374.363 429.697 C 374.685 430.018, 429.925 407.408, 430.692 406.642 C 431.199 406.134, 428.178 329.844, 427.628 329.295 C 427.489 329.155, 425.005 335.405, 422.108 343.182 M 164.746 547.746 C 151.136 553.569, 140.113 558.425, 140.250 558.537 C 140.388 558.649, 150.850 557.692, 163.500 556.409 C 176.150 555.126, 187.015 554.060, 187.644 554.039 C 188.372 554.014, 188.943 550.997, 189.212 545.750 C 189.445 541.212, 189.604 537.423, 189.565 537.330 C 189.525 537.236, 178.357 541.924, 164.746 547.746 M 353.655 676.460 C 345.565 679.341, 341.044 686.526, 341.044 696.500 C 341.044 715.401, 359.983 724.505, 371.306 711.048 C 375.002 706.655, 376.316 701.662, 375.773 694.071 C 374.818 680.724, 364.578 672.571, 353.655 676.460 M 355.256 683.029 C 351.614 684.493, 349.008 689.817, 349.004 695.800 C 348.997 704.823, 353.183 710.350, 359.620 709.816 C 365.138 709.359, 368.001 704.842, 367.996 696.602 C 367.992 689.588, 365.564 684.545, 361.434 682.975 C 358.442 681.837, 358.215 681.839, 355.256 683.029 M 299.821 721.828 C 293.971 723.918, 293.750 724.157, 294.586 727.488 C 295.221 730.017, 295.548 730.168, 299.135 729.594 L 303 728.976 303.011 742.238 C 303.017 749.532, 303.301 757.188, 303.642 759.250 C 304.215 762.719, 304.514 763, 307.631 763 L 311 763 311 741.500 L 311 720 307.750 720.078 C 305.962 720.120, 302.394 720.908, 299.821 721.828 M 254.324 738.612 C 252.578 739.473, 249.889 741.995, 248.350 744.217 C 244.741 749.425, 243.862 759.731, 246.449 766.506 C 249.510 774.520, 257.372 779.176, 265.202 777.610 C 281.575 774.335, 284.140 746.386, 268.800 738.405 C 265.245 736.555, 258.293 736.655, 254.324 738.612 M 204.411 739.891 C 197.599 744.045, 194.450 751.002, 195.274 760.080 C 196.837 777.327, 213.636 784.894, 224.257 773.137 C 232.665 763.831, 231.039 746.987, 221.087 740.280 C 216.750 737.357, 208.868 737.173, 204.411 739.891 M 209.256 745.038 C 201.147 748.265, 200.903 766.313, 208.913 770.455 C 214.830 773.515, 220.052 769.573, 221.509 760.946 C 223.134 751.330, 216.169 742.288, 209.256 745.038 M 257.750 745.080 C 253.399 747.614, 251.188 759.610, 254.046 765.182 C 257.793 772.490, 265.916 772.930, 269.490 766.020 C 271.182 762.748, 271.492 754.423, 270.061 750.661 C 267.946 745.098, 262.195 742.491, 257.750 745.080 M 207.684 790.416 C 199.387 793.446, 195.596 800.338, 196.154 811.378 C 196.763 823.432, 202.942 830.332, 213.160 830.368 C 219.054 830.389, 224.923 826.717, 227.594 821.339 C 230.232 816.025, 230.232 803.975, 227.594 798.661 C 224.024 791.471, 215.012 787.740, 207.684 790.416 M 256.021 790.116 C 246.407 793.952, 242.335 809.400, 248.025 820.458 C 254.327 832.707, 270.268 832.989, 276.997 820.970 C 280.552 814.619, 280.554 804.382, 277 798.039 C 273.609 791.987, 268.957 788.983, 263.102 789.063 C 260.571 789.098, 257.384 789.572, 256.021 790.116 M 156 791.118 C 151.421 792.935, 146.994 798.213, 145.373 803.789 C 141.339 817.666, 149.462 831, 161.951 831 C 175.725 831, 183.467 814.178, 176.250 799.929 C 172.043 791.623, 163.786 788.030, 156 791.118 M 104.750 792.771 C 101.106 793.983, 100.004 794.834, 100.015 796.426 C 100.043 800.111, 101.357 801.195, 104.398 800.039 C 105.901 799.467, 107.326 799, 107.565 799 C 107.804 799, 108 805.019, 108 812.375 C 108 819.731, 108.281 827.156, 108.625 828.875 C 109.177 831.634, 109.645 832, 112.625 832 L 116 832 116 811.500 L 116 791 112.750 791.096 C 110.963 791.148, 107.362 791.902, 104.750 792.771 M 257.009 798.837 C 249.638 806.208, 253.836 823, 263.048 823 C 267.633 823, 272 816.675, 272 810.034 C 272 798.580, 263.566 792.281, 257.009 798.837 M 158.209 798.025 C 155.603 799.095, 152.055 806.124, 152.022 810.282 C 151.996 813.549, 154.394 819.672, 156.693 822.213 C 160.330 826.232, 167.690 823.575, 170.040 817.395 C 172.139 811.874, 170.474 802.294, 166.899 799.330 C 164.774 797.568, 160.781 796.968, 158.209 798.025 M 207.235 799.250 C 202.133 804.682, 202.679 816.870, 208.234 821.543 C 211.847 824.584, 215.098 824.257, 218.951 820.465 C 222.163 817.304, 223.089 807.008, 220.596 802.186 C 217.715 796.614, 211.081 795.156, 207.235 799.250 M 207.459 842.880 C 201.904 845.403, 198.377 849.954, 196.915 856.488 C 195.126 864.484, 196.996 872.231, 201.899 877.134 C 215.935 891.171, 235.671 875.360, 229.928 854.679 C 228.498 849.531, 222.685 843.285, 218.152 842.025 C 213.231 840.659, 212.159 840.744, 207.459 842.880 M 159.500 843.940 C 155.031 845.535, 154.522 846.018, 154.705 848.484 C 154.978 852.163, 155.231 852.306, 159.406 851.154 L 163 850.161 163 866.581 L 163 883 167 883 L 171 883 171 874.657 C 171 870.068, 170.706 860.843, 170.346 854.157 L 169.693 842 167.096 842.078 C 165.668 842.120, 162.250 842.958, 159.500 843.940 M 106.765 844.157 C 104.105 845.129, 104.072 845.238, 105.541 848.078 C 106.371 849.685, 107.490 851, 108.026 851 C 108.562 851, 109 851.959, 109 853.130 C 109 854.302, 110.688 858.389, 112.750 862.212 L 116.500 869.162 116.791 858.331 C 117.171 844.189, 116.848 842.978, 112.731 843.079 C 110.954 843.122, 108.269 843.608, 106.765 844.157 M 208.831 850.035 C 205.975 851.701, 203.671 859.321, 204.451 864.521 C 205.356 870.557, 209.482 875.333, 213.790 875.333 C 217.556 875.333, 219.870 873.553, 221.655 869.282 C 226.416 857.892, 217.724 844.845, 208.831 850.035 M 156.500 892.356 C 150.046 895.344, 146 902.558, 146 911.078 C 146 915.682, 146.540 916.968, 151.164 923.360 C 154.004 927.287, 156.817 930.857, 157.414 931.294 C 159.404 932.749, 169.451 931.503, 172.283 929.451 C 179.276 924.383, 182.172 910.379, 178.087 901.384 C 174.351 893.158, 164.063 888.855, 156.500 892.356 M 157.177 901.312 C 152.163 906.649, 152.313 918.127, 157.461 922.963 C 161.107 926.389, 166.766 925.489, 169.805 921 C 171.817 918.029, 172.117 916.556, 171.791 911.261 C 171.288 903.096, 168.859 899.618, 163.368 899.203 C 160.274 898.970, 158.955 899.419, 157.177 901.312 M 162.762 938.511 C 164.211 941.280, 167.023 943.618, 170 944.528 C 172.173 945.193, 172.043 944.922, 169 942.458 C 167.075 940.898, 164.647 938.920, 163.604 938.061 C 161.830 936.600, 161.776 936.629, 162.762 938.511" stroke="none" fill="#e32414" fill-rule="evenodd"/></svg>