<?xml version="1.0" standalone="no"?>
<!DOCTYPE svg PUBLIC "-//W3C//DTD SVG 20010904//EN"
 "http://www.w3.org/TR/2001/REC-SVG-20010904/DTD/svg10.dtd">
<svg version="1.0" xmlns="http://www.w3.org/2000/svg"
 width="1000.000000pt" height="800.000000pt" viewBox="0 0 1000.000000 800.000000"
 preserveAspectRatio="xMidYMid meet">

<g transform="translate(0.000000,800.000000) scale(0.100000,-0.100000)"
fill="#000000" stroke="none">
<path d="M3641 6870 c-71 -15 -141 -40 -216 -78 l-69 -34 -62 21 c-34 11 -77
21 -95 21 -19 0 -54 7 -79 16 -37 13 -71 15 -195 9 -82 -3 -166 -10 -185 -15
-19 -5 -58 -11 -85 -14 -54 -5 -143 -32 -160 -47 -5 -5 -18 -9 -30 -9 -11 0
-32 -6 -46 -14 -14 -7 -38 -16 -52 -20 -15 -3 -44 -22 -65 -40 -20 -18 -50
-40 -67 -49 -16 -8 -47 -31 -67 -51 -30 -29 -62 -45 -160 -77 -68 -22 -152
-56 -187 -75 -70 -38 -211 -141 -211 -153 0 -4 -12 -21 -26 -37 -40 -46 -70
-112 -93 -209 -12 -49 -24 -97 -26 -105 -2 -8 -4 -26 -4 -39 -1 -14 -19 -42
-47 -70 -91 -90 -132 -170 -159 -308 -13 -65 -12 -80 6 -165 11 -51 21 -102
23 -113 7 -39 60 -127 93 -152 44 -34 49 -70 23 -173 -43 -167 -4 -318 106
-419 38 -35 61 -66 73 -98 48 -132 141 -233 244 -267 13 -4 17 -17 17 -56 0
-28 8 -78 17 -112 16 -56 16 -62 1 -71 -13 -9 -14 -16 -2 -62 9 -34 11 -62 5
-82 -8 -26 -6 -32 8 -36 12 -3 22 -27 35 -83 22 -100 73 -284 96 -349 10 -27
24 -72 31 -100 17 -66 179 -385 228 -449 22 -28 71 -87 110 -131 39 -44 81
-100 92 -125 12 -25 28 -58 36 -75 77 -166 269 -295 440 -295 71 0 91 -15 103
-79 5 -31 14 -76 20 -101 5 -25 15 -74 21 -110 6 -36 18 -85 25 -109 24 -77
19 -96 -31 -132 -48 -34 -64 -74 -51 -125 8 -31 50 -72 93 -90 53 -23 120 -95
133 -145 7 -24 27 -89 45 -144 19 -55 35 -113 37 -130 l3 -30 75 -3 c41 -2
162 -1 268 3 179 7 192 8 192 26 0 10 -5 19 -12 19 -6 0 -8 3 -5 7 4 3 0 14
-9 24 -11 12 -15 30 -12 53 2 19 1 33 -3 30 -14 -8 -20 14 -25 90 -5 68 -3 79
25 134 17 33 35 63 41 67 5 3 10 13 10 21 0 10 -12 14 -43 14 -32 0 -56 8 -88
30 -28 19 -52 27 -65 24 -17 -4 -24 1 -32 23 -8 22 -11 24 -11 8 -2 -41 -46
-60 -71 -30 -31 37 37 100 93 84 18 -5 35 -5 42 1 7 6 11 2 12 -12 4 -48 25
-78 62 -88 54 -14 96 0 97 33 1 14 6 33 12 40 19 22 2 27 -19 6 -10 -10 -32
-19 -48 -19 -22 0 -30 6 -35 25 -10 39 10 68 44 63 17 -3 28 0 27 6 -2 12 3
12 46 2 27 -6 27 -6 27 44 0 27 -3 50 -8 50 -18 0 -52 -32 -52 -49 0 -14 -6
-17 -26 -13 -16 3 -30 -1 -35 -9 -6 -10 -9 -8 -9 9 0 13 -6 22 -16 22 -11 0
-15 6 -11 20 3 11 0 18 -6 17 -17 -3 -21 35 -4 45 12 6 13 13 4 33 -7 14 -16
25 -20 25 -5 0 -5 6 0 13 4 6 8 44 8 82 0 86 34 162 127 286 35 46 69 96 75
111 7 16 17 28 22 28 5 0 32 22 60 49 36 34 51 57 51 75 0 17 5 26 16 26 13 0
14 3 5 14 -9 10 -8 16 4 26 8 7 15 22 14 34 0 11 -3 15 -6 9 -3 -8 -14 -11
-28 -7 -17 4 -38 -4 -72 -27 -26 -18 -52 -39 -56 -47 -6 -10 -20 -12 -48 -7
-29 5 -39 3 -39 -7 0 -7 -12 -21 -26 -32 -22 -15 -28 -16 -35 -5 -6 10 -9 11
-9 2 0 -7 -8 -13 -17 -13 -19 0 -95 -25 -123 -40 -10 -5 -32 -12 -51 -15 -18
-3 -36 -11 -40 -17 -10 -16 -93 -28 -101 -15 -6 9 -8 9 -8 1 0 -19 -50 -14
-50 5 -1 14 -3 13 -15 -3 -15 -20 -37 -13 -28 9 4 11 1 13 -11 9 -22 -8 -21
22 0 34 9 5 14 14 11 19 -10 16 -68 24 -83 12 -7 -6 -22 -8 -32 -4 -12 3 -26
-1 -35 -10 -9 -8 -24 -15 -35 -15 -11 0 -36 -7 -56 -15 -48 -20 -180 -31 -209
-17 -12 5 -43 16 -69 22 -48 13 -168 92 -168 111 0 5 -8 9 -17 7 -14 -2 -19 6
-23 37 -9 67 6 90 95 144 71 44 86 49 135 49 52 -1 111 19 124 41 3 5 -6 21
-19 35 -14 15 -25 30 -25 34 0 4 -21 23 -47 42 l-46 34 34 9 c57 14 98 36 137
76 35 36 92 73 109 70 44 -7 73 3 87 32 13 26 13 31 0 36 -7 3 -14 11 -14 19
0 7 -16 21 -35 30 -29 13 -40 14 -64 5 -66 -28 -205 -14 -262 25 -46 32 -100
40 -148 24 -34 -11 -43 -10 -70 6 -17 10 -31 26 -31 36 0 10 -4 18 -8 18 -20
0 10 116 35 136 7 7 23 10 33 7 13 -3 20 0 20 8 1 22 52 73 90 91 34 15 96 34
153 45 15 3 27 9 27 14 0 5 11 14 25 19 20 7 25 17 25 42 0 31 -2 33 -38 34
-20 0 -58 4 -84 8 -60 10 -197 -8 -268 -35 -76 -29 -146 -22 -200 21 -46 36
-58 68 -38 102 37 67 90 184 129 283 23 61 51 122 61 137 10 14 18 31 18 38 0
6 9 28 20 48 11 20 28 55 39 77 10 22 32 65 49 95 18 30 32 65 32 78 0 13 5
33 11 44 13 25 16 161 4 228 -9 54 -79 178 -135 240 -22 24 -40 49 -40 55 0
11 -55 59 -70 61 -6 1 -14 2 -19 3 -5 0 -14 15 -20 31 -10 30 -25 38 -36 20
-9 -15 -26 -1 -23 18 2 11 -3 16 -14 16 -10 -1 -18 4 -18 10 0 7 -11 23 -25
36 -14 13 -25 29 -25 37 0 17 -15 17 -32 0 -14 -14 -38 -12 -38 4 0 5 7 9 16
9 12 0 13 5 7 23 -4 12 -7 48 -6 79 l2 57 -30 -1 c-36 -1 -49 9 -29 23 12 9
11 10 -4 5 -23 -8 -36 8 -29 35 6 20 23 27 23 9 0 -5 4 -10 8 -10 5 0 9 7 9
15 0 8 -7 15 -14 15 -9 0 -12 7 -9 18 13 41 37 144 39 162 1 23 8 25 25 8 9
-9 12 -9 12 0 0 7 -6 15 -14 18 -9 3 -13 16 -11 33 5 37 42 108 61 115 8 3 14
13 14 23 0 10 5 25 11 33 8 12 9 10 4 -7 -3 -13 -2 -23 2 -23 11 0 53 84 53
105 0 7 10 15 23 17 12 2 26 13 32 26 5 12 15 22 22 22 7 0 13 4 13 8 0 4 14
16 31 26 27 16 38 17 91 6 51 -10 63 -9 84 5 20 13 22 19 14 35 -14 26 7 62
29 51 9 -5 43 -11 77 -15 53 -6 67 -3 112 19 28 14 69 41 92 60 61 51 92 46
105 -15 14 -65 47 -120 104 -172 31 -28 65 -66 76 -84 42 -69 232 -224 275
-224 7 0 19 -8 26 -17 8 -11 13 -13 14 -5 0 16 38 -4 58 -30 7 -10 21 -18 31
-18 10 0 27 -11 37 -25 10 -14 23 -25 29 -25 19 -1 106 -88 93 -93 -8 -3 -6
-6 4 -6 21 -1 63 -56 72 -95 16 -67 66 -131 146 -185 19 -14 37 -26 40 -28 2
-2 -2 -8 -9 -12 -9 -6 -4 -12 18 -22 17 -8 31 -19 31 -24 0 -9 44 -28 119 -51
10 -3 11 -7 2 -18 -8 -10 -9 -16 -1 -21 15 -9 0 -57 -24 -76 -12 -10 -34 -20
-51 -23 -21 -5 -26 -9 -17 -15 10 -6 10 -11 -3 -21 -15 -12 -18 -12 -27 3 -6
12 -14 15 -25 9 -11 -7 -21 -4 -34 9 -10 10 -26 15 -38 12 -13 -3 -21 -1 -21
6 0 7 -3 10 -7 8 -5 -3 -33 -1 -63 5 -30 5 -89 10 -130 12 -53 1 -74 5 -72 14
3 15 -14 16 -23 2 -8 -13 -113 -11 -121 2 -3 5 -10 6 -15 2 -6 -3 -42 -8 -79
-10 -38 -2 -81 -9 -95 -14 -15 -6 -40 -10 -56 -10 -52 0 -154 -39 -184 -70
-16 -17 -34 -30 -41 -30 -25 0 -47 -132 -30 -177 6 -15 8 -15 16 -3 7 10 10
11 10 3 0 -7 7 -13 15 -13 13 0 20 -19 16 -44 -1 -5 6 -6 14 -2 9 3 22 3 28
-1 15 -10 97 -12 97 -2 0 4 -6 9 -12 12 -10 4 -10 7 0 18 9 9 12 10 12 1 0 -7
7 -12 16 -12 11 0 14 6 9 20 -4 14 -1 22 12 27 10 4 20 10 23 13 3 4 44 19 93
35 48 15 89 30 91 34 2 3 50 5 105 4 56 -1 101 3 101 8 0 5 -5 9 -11 9 -5 0
-8 4 -4 10 4 6 15 6 31 0 17 -7 23 -7 19 0 -3 6 1 10 9 10 9 0 16 -7 16 -15 0
-8 6 -13 13 -11 6 3 27 7 45 10 28 5 32 3 32 -17 0 -23 10 -25 148 -26 30 0
52 -8 76 -26 18 -14 37 -25 43 -25 18 0 95 -41 89 -48 -4 -3 13 -25 36 -49 33
-34 42 -50 42 -78 0 -19 3 -35 8 -35 4 0 4 -8 1 -17 -5 -13 -2 -15 12 -10 15
6 16 5 5 -8 -11 -13 -9 -15 11 -16 13 0 18 -3 11 -6 -14 -6 -7 -94 11 -128 6
-11 12 -46 14 -79 2 -32 10 -71 18 -87 15 -28 12 -75 -6 -114 -16 -32 -1 -305
18 -355 4 -8 5 -20 4 -26 -1 -7 6 -14 14 -18 9 -3 13 -10 10 -16 -3 -5 -2 -10
3 -10 4 0 14 -16 22 -35 8 -19 17 -35 22 -35 4 0 8 -7 8 -15 0 -8 6 -15 14
-15 8 0 24 -9 37 -19 22 -18 22 -20 7 -26 -24 -10 -23 -34 1 -28 16 4 20 -2
25 -39 3 -23 7 -52 9 -63 9 -60 43 -143 66 -165 25 -24 51 -69 57 -99 1 -8 8
-17 15 -22 9 -5 4 -14 -15 -31 -27 -23 -29 -30 -37 -143 -5 -66 -13 -145 -18
-175 -8 -43 -6 -68 6 -115 30 -109 74 -155 151 -155 34 0 113 40 105 54 -3 6
1 4 10 -4 19 -18 36 -77 18 -66 -6 4 -11 3 -11 -3 0 -6 9 -15 20 -21 11 -6 20
-17 20 -25 0 -8 7 -18 16 -23 13 -7 17 -25 17 -86 -1 -43 -6 -82 -12 -90 -14
-16 -8 -21 36 -30 29 -7 32 -5 38 22 10 48 41 74 78 67 40 -8 107 -37 107 -47
0 -11 -8 -10 -32 3 -19 10 -20 9 -14 -24 8 -43 -8 -59 -50 -48 -22 5 -30 14
-32 34 -2 15 -8 27 -13 27 -11 0 -12 -25 0 -48 5 -9 14 -29 22 -44 10 -23 19
-28 49 -28 39 0 65 20 72 55 4 17 6 17 12 -7 15 -52 -55 -108 -119 -95 -19 3
-26 -2 -34 -24 -11 -33 -55 -77 -88 -90 -31 -11 -77 -1 -102 23 -21 19 -21 19
-21 -5 0 -13 -10 -39 -23 -58 -69 -103 -216 -68 -236 56 -7 46 -8 48 -15 23
-10 -35 -1 -73 23 -97 20 -20 17 -62 -7 -108 -7 -12 -12 -24 -12 -27 0 -13 57
18 76 41 22 28 140 69 146 51 4 -12 57 8 83 32 11 10 39 21 62 25 24 4 45 10
47 14 3 4 29 6 58 5 71 -2 71 -2 64 -19 -3 -8 -4 -15 -3 -15 1 0 17 4 35 9 33
10 41 4 20 -17 -9 -9 -8 -12 6 -12 9 0 14 5 11 10 -3 6 1 13 9 16 16 6 46 -17
46 -35 0 -6 7 -11 16 -11 8 0 12 -5 8 -11 -4 -7 1 -10 12 -7 19 3 54 -19 54
-34 0 -16 34 -47 40 -37 8 12 40 1 40 -13 0 -5 -9 -12 -20 -15 -24 -6 -25 -16
-4 -48 18 -28 38 -23 29 6 -6 18 -5 19 14 7 12 -7 19 -19 16 -25 -2 -7 0 -13
5 -13 6 0 10 -9 10 -20 0 -13 7 -20 20 -20 14 0 20 -7 20 -21 0 -12 8 -23 18
-26 18 -4 49 -43 34 -43 -16 0 -5 -55 11 -58 10 -2 17 -9 17 -16 0 -7 11 -23
25 -36 22 -20 25 -21 25 -6 0 10 6 16 13 13 6 -2 11 -10 9 -16 -2 -12 22 -43
33 -41 19 4 16 -12 -3 -17 -26 -6 -19 -23 9 -23 26 0 44 -18 53 -53 8 -34 34
-35 42 -1 4 16 12 23 20 20 11 -4 14 5 14 35 0 32 3 40 16 37 21 -4 31 -21 45
-78 8 -34 24 -58 63 -95 30 -28 57 -62 61 -75 12 -41 48 -100 57 -94 4 3 8 -2
8 -10 0 -9 5 -16 12 -16 6 0 25 -11 42 -24 17 -13 41 -26 54 -30 12 -4 22 -14
22 -22 0 -8 5 -14 10 -14 6 0 10 5 10 12 0 6 3 8 7 5 3 -4 13 -1 21 6 13 10
14 9 8 -10 -5 -16 -2 -25 14 -33 12 -6 28 -9 35 -6 8 3 16 0 18 -7 3 -9 7 -9
19 0 8 7 18 10 21 7 3 -3 35 4 72 16 131 44 224 166 261 341 8 42 18 155 21
260 l6 186 -33 12 c-18 6 -39 11 -46 11 -7 0 -29 16 -48 35 -25 24 -46 35 -66
35 -35 0 -49 17 -18 23 17 3 14 5 -9 6 -22 1 -33 -4 -33 -13 0 -8 -22 -21 -49
-30 -57 -18 -81 -20 -81 -6 0 6 -7 10 -15 10 -8 0 -15 6 -15 14 0 8 7 16 15
20 8 3 15 11 15 18 0 7 17 22 37 33 20 11 40 27 44 35 69 138 66 185 -27 465
-31 93 -38 104 -92 156 -33 31 -72 59 -88 63 -16 4 -35 13 -43 19 -17 14 -112
35 -163 36 -45 1 -88 17 -88 32 0 6 29 38 65 71 49 45 66 69 72 96 4 20 6 41
5 46 -5 17 10 46 23 46 7 0 19 -16 25 -35 18 -55 78 -109 171 -153 46 -22 93
-41 104 -42 52 -4 152 0 175 9 14 5 45 14 70 22 25 7 56 18 70 25 14 8 44 18
67 24 23 6 62 26 87 45 77 59 130 89 123 71 -4 -9 -2 -16 2 -16 5 0 11 6 14
14 3 7 19 16 36 19 17 4 31 11 31 17 0 6 11 23 25 38 14 15 28 41 31 59 3 18
10 33 15 33 9 0 2 113 -12 180 -5 25 -11 63 -13 85 -1 22 -8 51 -15 63 -18 34
-9 36 35 10 31 -19 52 -23 106 -21 58 1 78 7 140 41 l73 40 520 9 520 8 67 32
c88 41 160 113 201 201 l32 67 0 1390 0 1390 -5 -1365 c-6 -1511 -1 -1402 -70
-1510 -70 -110 -175 -174 -310 -191 -59 -7 -499 -8 -1420 -2 l-1335 8 -59 28
c-113 52 -185 130 -229 245 l-22 57 -3 1327 -3 1326 -107 7 c-101 7 -112 10
-202 54 -52 26 -114 60 -138 74 -59 38 -144 75 -161 69 -8 -3 -12 1 -9 9 8 24
-17 37 -113 65 -124 34 -168 42 -329 58 -74 8 -164 21 -200 30 -77 20 -459 31
-529 16z m-741 -580 c0 -11 -42 -30 -66 -30 -24 0 -16 18 14 28 36 14 52 14
52 2z m-670 -859 c0 -5 -7 -12 -16 -15 -24 -9 -28 -7 -14 9 14 17 30 20 30 6z
m1946 -166 c24 -18 7 -19 -26 0 -16 9 -19 14 -9 15 8 0 24 -7 35 -15z m69 -25
c8 -13 -5 -13 -25 0 -13 8 -13 10 2 10 9 0 20 -4 23 -10z m-1108 -422 c-3 -8
-6 -5 -6 6 -1 11 2 17 5 13 3 -3 4 -12 1 -19z m138 -78 c3 -5 -1 -10 -9 -10
-9 0 -16 5 -16 10 0 6 4 10 9 10 6 0 13 -4 16 -10z m-887 -33 c17 -13 28 -27
24 -31 -4 -4 2 -14 12 -22 36 -26 8 -26 -33 0 -22 14 -49 26 -59 26 -18 0 -42
18 -42 31 0 8 23 16 51 18 8 0 29 -10 47 -22z m-48 -97 c0 -5 -4 -10 -10 -10
-5 0 -10 5 -10 10 0 6 5 10 10 10 6 0 10 -4 10 -10z m127 -143 c-5 -15 -95
-36 -163 -38 -129 -4 -151 7 -46 23 174 27 214 30 209 15z m-71 -282 c-9 -19
-21 -37 -26 -40 -6 -4 -7 -17 -4 -31 3 -13 1 -31 -6 -39 -6 -8 -9 -18 -6 -24
4 -5 -1 -16 -9 -24 -8 -9 -15 -20 -15 -26 0 -5 -7 -14 -17 -19 -11 -7 -14 -15
-8 -28 11 -26 12 -47 2 -61 -5 -7 -6 -21 -3 -31 4 -10 0 -32 -9 -48 -8 -16
-15 -41 -15 -55 0 -15 -7 -32 -15 -39 -12 -10 -12 -15 1 -35 8 -13 18 -50 21
-82 3 -32 10 -66 15 -76 6 -12 4 -24 -7 -39 -15 -22 -16 -21 -19 5 0 6 -11 13
-22 15 -24 3 -51 73 -59 150 -2 29 -11 50 -26 63 -12 10 -18 19 -13 19 5 0 1
5 -8 11 -10 5 -18 20 -18 32 0 13 -7 33 -16 45 -9 13 -14 34 -12 47 3 14 1 23
-6 22 -7 -1 -11 18 -11 51 1 36 -3 52 -12 52 -7 0 -13 5 -13 10 0 6 5 10 12
10 9 0 9 3 0 12 -7 7 -12 20 -12 30 0 10 -4 18 -10 18 -5 0 -10 5 -10 12 0 6
-7 19 -16 29 -16 18 -11 44 7 34 5 -4 9 1 9 9 0 10 -6 13 -15 10 -8 -4 -15 -1
-15 5 0 6 10 11 22 11 12 0 18 3 15 7 -8 7 11 33 24 33 5 0 9 -10 9 -22 0 -18
13 -18 16 0 5 39 15 42 113 36 53 -2 119 -1 146 3 44 8 50 6 53 -10 2 -10 -4
-34 -12 -52z m2428 -620 c-12 -9 -14 -14 -6 -15 7 0 10 -5 7 -10 -4 -6 -12 -5
-21 4 -16 16 -19 30 -5 21 5 -3 12 -1 16 5 3 5 11 10 18 10 6 0 2 -7 -9 -15z
m51 -7 c6 -4 2 -8 -7 -8 -10 0 -18 7 -18 17 0 9 3 12 8 7 4 -5 12 -12 17 -16z
m-85 -35 c0 -3 -7 -14 -16 -24 -9 -10 -19 -39 -21 -64 -3 -25 -10 -45 -14 -45
-15 0 -10 90 7 115 15 23 44 35 44 18z m67 0 c-4 -3 -2 -12 3 -18 7 -9 7 -21
0 -39 -5 -15 -10 -41 -10 -57 0 -16 -4 -29 -9 -29 -17 0 -22 57 -8 91 7 19 12
40 10 47 -3 6 1 12 8 12 7 0 9 -3 6 -7z m2609 -80 c-10 -10 -89 -33 -95 -28
-6 7 60 34 83 35 11 0 16 -3 12 -7z m-2626 -179 c0 -13 -4 -24 -9 -24 -13 0
-24 37 -16 50 10 16 25 1 25 -26z m-40 -84 c0 -20 -5 -30 -15 -30 -16 0 -19
17 -9 44 10 26 24 18 24 -14z m45 -103 c7 -18 17 -62 20 -97 5 -45 19 -89 46
-144 43 -86 50 -143 22 -175 -16 -20 -17 -20 -41 0 -32 25 -39 24 -46 -6 -7
-28 -33 -33 -69 -13 -34 18 -45 32 -56 76 -10 37 -2 92 14 92 3 0 15 -21 27
-47 12 -27 32 -58 45 -70 26 -25 29 -22 11 10 -7 13 -12 74 -14 147 -1 69 -5
140 -8 158 -8 35 9 102 25 102 6 0 16 -15 24 -33z m-1895 -87 c0 -16 -50 -29
-75 -20 -31 12 -32 28 -2 32 30 4 77 -3 77 -12z m2410 -445 c0 -8 -9 -15 -20
-15 -11 0 -20 7 -20 15 0 8 9 15 20 15 11 0 20 -7 20 -15z m49 -84 c23 -15 5
-41 -29 -41 -23 0 -30 4 -30 19 0 27 32 39 59 22z m-48 -123 c15 -27 4 -48
-24 -48 -32 0 -51 24 -43 54 5 19 11 22 31 18 14 -2 30 -13 36 -24z m-1572
-772 c-2 -2 -15 -9 -29 -16 -23 -12 -24 -12 -11 3 7 10 20 17 29 17 8 0 13 -2
11 -4z m-365 -152 c9 -3 16 -13 16 -22 0 -13 -2 -13 -18 1 -10 10 -22 14 -25
10 -4 -3 -7 -1 -7 5 0 13 10 15 34 6z"/>
<path d="M2091 3944 c0 -11 3 -14 6 -6 3 7 2 16 -1 19 -3 4 -6 -2 -5 -13z"/>
<path d="M5762 6689 c-25 -13 -55 -39 -70 -61 -22 -34 -27 -55 -33 -156 -5
-64 -7 -677 -6 -1362 l2 -1245 23 -43 c31 -58 100 -102 160 -102 l45 0 -102
105 c-61 64 -101 113 -101 126 l0 20 28 -20 c15 -11 74 -67 132 -125 l105
-106 90 0 90 0 -223 223 c-192 192 -246 257 -214 257 4 0 115 -108 247 -240
l240 -240 90 0 90 0 -338 338 c-293 293 -363 372 -329 372 4 0 167 -160 362
-355 l355 -355 90 0 89 0 -452 453 c-350 350 -452 458 -452 477 0 20 94 -69
478 -453 l477 -477 95 0 95 0 -573 573 c-373 373 -572 579 -572 592 0 13 192
-172 593 -573 l592 -592 95 0 95 0 -688 688 c-450 450 -687 694 -687 707 0 13
230 -210 708 -688 l707 -707 100 0 100 0 -813 813 c-446 446 -812 819 -812
827 0 8 372 -357 828 -813 l827 -827 100 0 100 0 -928 928 c-510 510 -927 934
-927 942 0 8 424 -409 943 -928 l942 -942 100 0 100 0 -1043 1043 c-573 573
-1042 1049 -1042 1057 0 8 469 -454 1043 -1028 573 -573 1047 -1042 1052
-1042 6 0 21 29 33 64 17 48 21 70 13 83 -5 10 -489 497 -1075 1083 -586 586
-1066 1069 -1066 1075 0 5 483 -473 1073 -1063 590 -589 1076 -1072 1080
-1072 12 0 0 176 -14 202 -6 13 -491 503 -1077 1090 -586 587 -1064 1069
-1061 1072 3 3 478 -468 1057 -1046 578 -579 1054 -1050 1057 -1046 3 3 1 18
-5 34 -12 30 1 92 24 122 7 10 -164 187 -704 727 l-715 715 -35 -35 c-37 -36
-55 -44 -47 -22 2 6 -2 17 -8 22 -7 6 -22 36 -35 68 -12 31 -27 57 -32 57 -5
0 -7 4 -3 9 3 5 0 13 -5 16 -6 4 -22 30 -35 58 -18 39 -67 95 -197 224 -147
146 -182 176 -234 198 l-62 27 -4 50 c-4 38 0 61 17 97 13 26 30 53 39 60 9 7
16 20 16 28 0 7 6 13 13 12 6 -1 25 3 40 9 16 7 53 12 83 12 30 0 54 4 54 10
0 7 6 7 20 0 13 -7 94 -10 233 -7 116 1 687 5 1269 7 581 3 1051 8 1045 12 -7
4 -619 8 -1362 8 l-1350 0 -43 -21z"/>
<path d="M8872 6590 c0 -14 2 -19 5 -12 2 6 2 18 0 25 -3 6 -5 1 -5 -13z"/>
<path d="M6005 6202 c71 -73 131 -132 133 -132 23 0 -133 165 -218 229 -25 19
13 -25 85 -97z"/>
<path d="M6650 5900 c-14 -5 -41 -13 -60 -18 l-35 -9 515 -514 c466 -466 515
-511 518 -487 2 15 -8 50 -21 77 l-24 50 24 28 24 27 -428 428 c-460 460 -438
442 -513 418z"/>
<path d="M7175 5490 l420 -420 11 33 c6 17 9 62 6 98 l-4 67 -202 200 c-198
196 -202 200 -251 206 -48 6 -51 8 -68 49 -11 28 -34 56 -62 77 -25 19 -45 37
-45 42 0 4 -5 8 -10 8 -6 0 -29 8 -53 19 -41 18 -125 41 -150 41 -6 0 177
-189 408 -420z"/>
<path d="M6455 5835 l-60 -35 714 -712 714 -713 7 40 c8 43 -1 124 -18 168
-15 35 -1262 1288 -1282 1287 -8 0 -42 -16 -75 -35z"/>
<path d="M7415 5480 c98 -98 181 -178 183 -176 6 6 -26 76 -48 103 -11 14 -20
34 -20 45 0 12 -4 16 -11 12 -7 -4 -40 23 -80 65 -60 63 -161 131 -194 131 -5
0 71 -81 170 -180z"/>
<path d="M3445 4733 c-11 -2 -34 -11 -52 -19 -17 -8 -35 -14 -41 -14 -5 0 -15
-6 -22 -14 -6 -8 -18 -12 -26 -9 -8 3 -22 -3 -30 -13 -11 -14 -17 -15 -20 -6
-3 6 -12 12 -20 12 -9 0 -12 5 -9 10 3 6 2 10 -3 10 -13 0 -34 -59 -26 -72 4
-6 -3 -5 -15 1 -22 12 -26 7 -21 -33 1 -13 -3 -17 -14 -13 -9 4 -16 2 -16 -3
0 -6 15 -11 33 -11 17 -1 44 -3 58 -4 22 -3 26 0 22 14 -3 12 2 21 14 25 10 3
39 23 66 44 64 51 147 75 257 75 48 0 109 -4 136 -7 63 -10 47 12 -18 25 -45
8 -218 10 -253 2z m-220 -143 c-3 -5 -13 -10 -21 -10 -8 0 -12 5 -9 10 3 6 13
10 21 10 8 0 12 -4 9 -10z"/>
<path d="M3822 4678 c3 -7 13 -15 24 -17 10 -2 33 -15 49 -30 17 -14 49 -33
73 -40 23 -8 42 -18 42 -23 0 -4 11 -8 25 -8 19 0 23 -4 19 -17 -4 -11 -2 -14
3 -8 12 16 55 17 47 2 -5 -9 -3 -9 6 0 11 10 11 16 -2 30 -8 10 -14 23 -12 29
5 12 -58 44 -88 44 -12 0 -29 7 -38 15 -9 8 -40 19 -70 25 -69 13 -83 13 -78
-2z"/>
<path d="M3450 4596 c-25 -8 -56 -18 -70 -22 -33 -10 -73 -39 -129 -92 -37
-35 -43 -46 -34 -60 8 -14 27 -17 99 -17 49 0 117 -4 152 -9 44 -6 62 -6 62 2
0 6 -12 11 -27 11 -49 0 -63 4 -63 18 0 7 -7 16 -15 19 -8 4 -15 12 -15 20 0
8 -8 14 -17 14 -28 0 3 23 64 48 80 34 88 31 90 -28 1 -57 33 -115 68 -124 60
-17 177 1 200 29 8 10 24 10 65 4 62 -10 95 1 104 35 10 37 -68 87 -209 132
-99 32 -256 41 -325 20z m320 -77 c0 -5 -7 -9 -15 -9 -8 0 -15 7 -15 15 0 9 6
12 15 9 8 -4 15 -10 15 -15z"/>
<path d="M3323 4343 c9 -2 23 -2 30 0 6 3 -1 5 -18 5 -16 0 -22 -2 -12 -5z"/>
<path d="M3420 4315 c0 -9 6 -12 15 -9 8 4 15 7 15 9 0 2 -7 5 -15 9 -9 3 -15
0 -15 -9z"/>
<path d="M3601 4311 c-22 -14 18 -22 59 -12 28 6 31 10 17 16 -9 4 -23 2 -30
-4 -8 -6 -17 -7 -23 -1 -5 5 -15 5 -23 1z"/>
<path d="M3720 4310 c0 -5 5 -10 11 -10 5 0 7 5 4 10 -3 6 -8 10 -11 10 -2 0
-4 -4 -4 -10z"/>
<path d="M3550 4306 c0 -2 7 -7 16 -10 8 -3 12 -2 9 4 -6 10 -25 14 -25 6z"/>
<path d="M4917 2164 c-4 -4 -7 -17 -7 -28 1 -19 1 -20 11 -3 11 19 8 43 -4 31z"/>
<path d="M5077 2139 c4 -13 8 -18 11 -10 2 7 -1 18 -6 23 -8 8 -9 4 -5 -13z"/>
<path d="M4974 2095 c4 -11 9 -27 10 -35 7 -39 111 -43 111 -5 0 16 -10 21
-50 28 -27 4 -56 14 -64 20 -12 10 -13 9 -7 -8z"/>
<path d="M4866 2016 c7 -19 -43 -53 -57 -39 -12 12 -49 5 -49 -8 0 -5 9 -9 20
-9 11 0 20 -6 20 -14 0 -21 53 -28 68 -8 14 19 16 92 2 92 -5 0 -7 -6 -4 -14z"/>
<path d="M4515 1870 c-4 -7 3 -22 17 -36 19 -20 30 -23 56 -18 22 4 32 12 32
24 0 15 -5 17 -27 10 -21 -5 -33 -3 -49 12 -16 14 -24 16 -29 8z"/>
<path d="M5240 1844 c0 -8 5 -12 10 -9 6 3 10 10 10 16 0 5 -4 9 -10 9 -5 0
-10 -7 -10 -16z"/>
<path d="M4267 1783 c-15 -14 -6 -56 16 -74 28 -23 95 -26 104 -4 8 22 -4 30
-21 16 -20 -17 -61 4 -79 40 -7 16 -17 26 -20 22z"/>
<path d="M4458 1738 c-2 -29 -3 -55 -2 -57 2 -2 16 6 32 18 17 12 37 21 46 21
22 0 20 17 -3 25 -10 3 -26 14 -36 25 -27 30 -33 25 -37 -32z"/>
<path d="M4122 1620 c0 -14 2 -19 5 -12 2 6 2 18 0 25 -3 6 -5 1 -5 -13z"/>
<path d="M4200 1584 c-11 -26 -18 -49 -15 -52 8 -8 76 69 72 82 -2 6 -11 12
-20 14 -12 3 -23 -11 -37 -44z"/>
<path d="M3993 1593 c-27 -10 -12 -33 30 -43 23 -6 48 -13 55 -16 21 -6 37 7
21 17 -11 7 -10 9 4 9 9 0 17 4 17 9 0 5 -15 9 -34 9 -18 0 -43 5 -54 11 -11
6 -22 11 -24 10 -2 0 -9 -3 -15 -6z"/>
<path d="M3954 1478 c-43 -51 -54 -110 -16 -89 22 13 95 81 91 85 -6 5 -47 26
-52 26 -2 0 -12 -10 -23 -22z"/>
<path d="M5471 1474 c0 -11 3 -14 6 -6 3 7 2 16 -1 19 -3 4 -6 -2 -5 -13z"/>
<path d="M5652 1450 c0 -14 2 -19 5 -12 2 6 2 18 0 25 -3 6 -5 1 -5 -13z"/>
<path d="M5897 1270 c-21 -25 -21 -30 -2 -30 8 0 15 -9 15 -20 0 -12 7 -20 18
-20 13 0 14 2 4 9 -8 5 -14 25 -14 45 0 20 -1 36 -2 36 -1 0 -9 -9 -19 -20z"/>
<path d="M3885 900 c-4 -6 3 -10 14 -10 25 0 27 6 6 13 -8 4 -17 2 -20 -3z"/>
</g>
</svg>
