<?xml version="1.0" standalone="no"?>
<!DOCTYPE svg PUBLIC "-//W3C//DTD SVG 20010904//EN"
 "http://www.w3.org/TR/2001/REC-SVG-20010904/DTD/svg10.dtd">
<svg version="1.0" xmlns="http://www.w3.org/2000/svg"
 width="3072.000000pt" height="2048.000000pt" viewBox="0 0 3072.000000 2048.000000"
 preserveAspectRatio="xMidYMid meet">

<g transform="translate(0.000000,2048.000000) scale(0.100000,-0.100000)"
fill="#000000" stroke="none">
<path d="M14930 17491 c-84 -6 -89 -7 -45 -12 49 -5 49 -5 -20 -9 l-70 -3 55
-7 c41 -5 25 -7 -65 -7 -83 0 -109 2 -85 8 54 12 -158 -1 -263 -16 -51 -8
-126 -19 -167 -25 -41 -6 -83 -15 -92 -20 -10 -5 -23 -8 -30 -5 -7 3 -67 -7
-133 -21 -66 -14 -129 -27 -140 -28 -57 -7 -116 -19 -120 -26 -11 -18 100 -7
161 17 10 4 14 -2 14 -20 0 -14 -7 -28 -16 -31 -27 -10 -244 -7 -244 4 0 6 10
10 22 10 12 0 19 3 16 6 -3 3 -23 2 -44 -2 -33 -6 -36 -8 -19 -16 16 -7 14 -7
-9 -4 -33 4 -240 -45 -287 -68 -18 -9 -43 -16 -56 -16 -13 0 -22 -4 -19 -9 4
-5 -3 -7 -14 -4 -11 3 -20 1 -20 -3 0 -5 -17 -10 -37 -12 -21 -1 -42 -7 -47
-12 -6 -6 -19 -10 -31 -10 -12 0 -25 -4 -31 -9 -5 -6 -22 -12 -38 -15 -16 -3
-32 -9 -35 -14 -3 -4 -17 -9 -31 -10 -14 0 -26 -5 -28 -10 -2 -6 -12 -8 -22
-5 -11 3 -20 0 -20 -6 0 -11 22 -10 53 4 10 4 21 5 24 1 4 -3 0 -6 -8 -6 -23
-1 -63 -36 -50 -44 7 -4 17 -3 24 2 17 14 67 21 73 11 3 -5 -9 -9 -25 -9 -17
0 -31 -5 -31 -10 0 -13 -80 -7 -106 8 -10 6 -14 12 -8 12 5 0 19 7 30 15 17
13 15 13 -18 3 -21 -6 -34 -16 -31 -21 3 -6 1 -7 -5 -3 -6 3 -32 -2 -59 -13
-28 -11 -42 -21 -33 -23 8 -3 3 -3 -12 -1 -14 2 -29 -1 -33 -6 -3 -6 -15 -11
-25 -11 -10 0 -31 -11 -46 -25 -15 -14 -32 -25 -37 -25 -6 0 -2 7 9 15 10 8
-8 4 -40 -10 -33 -13 -68 -31 -80 -41 -18 -16 -33 -20 -73 -23 -7 -1 -13 -7
-13 -15 0 -8 -7 -17 -16 -20 -22 -8 -26 -8 -19 4 3 6 -1 7 -9 4 -9 -3 -16 -10
-16 -15 0 -4 -7 -5 -17 -2 -11 4 -14 3 -9 -5 4 -8 2 -10 -7 -6 -8 3 -21 -2
-30 -10 -9 -9 -20 -16 -26 -16 -6 0 -40 -14 -76 -32 -44 -22 -61 -35 -52 -41
7 -5 1 -6 -16 -3 -19 5 -29 2 -33 -9 -4 -8 -14 -15 -24 -15 -9 0 -33 -11 -53
-24 -19 -13 -38 -22 -41 -18 -3 3 -6 -1 -6 -8 0 -7 -3 -11 -6 -8 -3 4 -22 -5
-42 -18 -19 -14 -46 -27 -59 -30 -17 -5 -21 -10 -14 -18 8 -9 1 -12 -26 -13
-19 -1 -38 -5 -42 -11 -3 -5 -21 -17 -40 -27 -27 -13 -31 -19 -20 -27 11 -8
10 -9 -4 -4 -17 5 -77 -28 -85 -46 -2 -5 -10 -8 -17 -8 -21 0 -106 -56 -97
-65 4 -4 0 -6 -8 -5 -25 4 -44 0 -37 -7 4 -3 2 -12 -4 -19 -8 -9 -5 -18 10
-33 21 -21 47 -29 36 -11 -3 6 -2 10 4 10 6 0 13 -12 17 -27 11 -53 11 -53 59
-48 34 4 46 2 42 -8 -3 -11 -36 -15 -140 -16 -19 0 -26 -5 -21 -12 4 -7 26
-10 60 -7 30 3 54 1 54 -4 0 -5 5 -6 11 -2 8 4 9 0 4 -15 -5 -17 -2 -21 14
-21 12 0 29 8 39 18 25 23 59 42 74 42 8 0 4 -7 -7 -16 -26 -20 -128 -69 -137
-66 -5 1 -7 -4 -5 -11 1 -6 -4 -11 -11 -9 -8 1 -36 -16 -64 -38 -28 -22 -57
-40 -64 -40 -8 0 -14 -6 -14 -14 0 -17 -44 -29 -73 -20 -21 6 -21 5 -3 -8 17
-14 15 -17 -44 -56 -49 -33 -66 -40 -76 -31 -11 9 -14 8 -13 -7 4 -37 -1 -54
-16 -54 -16 0 -195 -116 -230 -149 -11 -10 -30 -22 -43 -26 -13 -4 -26 -15
-30 -24 -7 -19 -223 -207 -279 -245 -18 -11 -35 -29 -38 -38 -3 -9 -15 -18
-27 -20 -11 -2 -27 -12 -35 -24 -13 -20 -12 -21 89 -33 581 -69 1334 -208
1854 -342 87 -23 170 -44 184 -46 45 -9 461 -132 605 -179 135 -44 468 -163
530 -189 17 -7 93 -38 170 -70 77 -32 156 -69 176 -81 20 -13 39 -21 41 -18 3
2 15 -7 27 -20 22 -24 23 -26 11 -118 -13 -101 -9 -207 16 -378 9 -58 19 -132
24 -165 4 -33 26 -122 49 -198 23 -76 41 -147 41 -157 0 -10 3 -20 8 -22 9 -4
82 -184 82 -204 0 -7 4 -14 8 -14 4 0 25 -35 47 -77 22 -43 45 -82 51 -88 6
-5 26 -32 45 -60 18 -27 38 -55 44 -61 5 -6 26 -28 45 -50 20 -21 54 -52 75
-68 22 -17 42 -33 45 -38 13 -18 190 -97 240 -107 30 -5 162 -15 293 -21 370
-16 636 -49 977 -119 219 -46 568 -149 716 -211 l40 -18 12 79 c15 105 42 166
77 175 49 12 70 -8 89 -81 42 -170 154 -309 326 -407 l50 -28 0 42 c0 56 24
168 44 206 19 37 59 49 92 27 13 -8 24 -21 24 -28 0 -6 24 -61 54 -122 54
-112 123 -216 180 -270 44 -42 110 -95 119 -95 4 0 7 15 7 34 0 51 31 179 48
199 33 37 90 14 107 -43 10 -34 60 -131 87 -172 97 -140 191 -237 309 -315
l68 -45 78 11 c43 6 115 12 160 13 67 1 86 -2 103 -17 11 -10 70 -101 131
-204 141 -235 171 -281 236 -361 28 -36 57 -78 62 -94 15 -37 14 -99 -1 -115
-11 -10 -5 -20 27 -48 86 -76 214 -165 295 -207 93 -48 254 -102 334 -112 61
-8 82 -18 97 -45 20 -38 -5 -70 -109 -138 -143 -95 -273 -195 -320 -246 -23
-25 -50 -45 -61 -45 -13 0 -77 57 -178 158 -234 235 -419 366 -705 499 -212
98 -289 140 -345 188 -87 74 -135 183 -148 332 l-7 81 -87 40 c-1025 481
-1658 714 -2236 826 -481 93 -977 67 -1300 -69 -109 -46 -164 -72 -195 -92
-19 -13 -40 -23 -47 -23 -7 0 -13 -4 -13 -8 0 -5 -19 -19 -42 -32 -24 -13 -45
-26 -48 -30 -3 -3 -23 -19 -44 -36 -55 -40 -113 -93 -150 -133 -17 -19 -43
-48 -58 -64 -16 -17 -28 -33 -28 -36 0 -3 -17 -25 -37 -47 -21 -23 -51 -67
-68 -98 -16 -31 -37 -65 -46 -74 -8 -10 -18 -26 -21 -37 -8 -26 -71 -168 -78
-175 -8 -8 -49 -164 -68 -260 -9 -47 -20 -87 -24 -88 -12 -5 -9 -472 3 -472 5
0 9 -12 9 -27 1 -28 26 -140 55 -243 8 -30 15 -61 15 -70 0 -24 36 -90 45 -82
5 4 5 2 2 -4 -4 -6 3 -30 14 -54 11 -23 22 -52 25 -64 2 -11 8 -22 14 -24 6
-2 8 -7 5 -12 -3 -4 2 -13 10 -20 8 -7 15 -19 15 -26 0 -8 5 -14 10 -14 6 0
10 -7 10 -15 0 -8 5 -15 11 -15 5 0 8 -4 5 -9 -3 -5 5 -25 19 -45 14 -20 25
-39 25 -42 0 -6 39 -59 96 -130 69 -86 178 -196 205 -208 37 -15 110 -77 104
-87 -5 -7 65 -70 75 -67 3 1 18 -10 34 -25 16 -15 35 -27 42 -27 7 0 27 -12
45 -27 18 -16 29 -22 25 -15 -5 8 18 -4 50 -26 54 -37 176 -102 189 -102 4 0
4 4 0 9 -3 6 15 3 41 -6 27 -9 41 -19 34 -23 -19 -12 180 -79 325 -110 22 -4
67 -15 100 -23 52 -13 156 -30 325 -51 25 -4 234 -10 465 -16 825 -19 1440
-80 2065 -206 594 -120 1239 -349 1623 -577 42 -25 81 -46 85 -47 4 0 14 -6
22 -13 8 -7 40 -27 70 -46 234 -142 524 -391 710 -607 197 -228 321 -426 430
-684 29 -69 54 -127 56 -129 2 -3 153 222 254 380 69 108 203 348 289 519 479
945 730 1910 781 2995 12 247 8 450 -16 775 -25 351 -63 670 -76 630 -6 -19
-7 -15 -4 15 4 51 -22 219 -35 223 -5 2 -7 7 -4 12 9 14 -45 271 -61 296 -9
13 -13 28 -9 34 4 6 4 23 1 36 -6 21 -9 24 -22 13 -8 -6 -18 -9 -22 -5 -4 4 1
13 11 20 21 16 22 42 2 79 -18 35 -33 89 -40 145 -3 23 -16 66 -30 96 -14 30
-25 65 -25 77 0 29 -71 243 -82 247 -4 2 -6 7 -3 12 8 13 -47 160 -58 153 -6
-4 -8 0 -4 10 4 10 2 17 -4 17 -6 0 -9 7 -5 15 3 8 2 14 -2 14 -19 -3 -26 2
-13 10 7 5 10 14 6 21 -6 9 -10 9 -16 -1 -6 -9 -7 -1 -4 21 4 28 3 31 -5 15
-9 -18 -10 -17 -6 8 2 21 0 27 -10 23 -8 -3 -14 1 -14 8 0 8 -3 23 -6 33 -3
11 1 8 11 -7 18 -29 17 -23 -9 42 -10 27 -23 45 -29 41 -5 -3 -7 -2 -4 4 6 9
-12 57 -78 208 -9 22 -22 43 -27 46 -5 3 -9 9 -9 13 3 20 0 26 -11 20 -8 -5
-9 -2 -5 9 3 9 -1 24 -11 33 -9 10 -16 19 -14 21 7 9 0 23 -11 23 -7 0 -18 10
-26 23 l-14 22 23 -20 23 -20 -17 33 c-9 17 -20 32 -25 32 -5 0 -12 7 -15 16
-3 8 -2 12 4 9 6 -3 7 1 4 9 -3 9 -10 16 -16 16 -5 0 -7 4 -3 9 3 5 0 15 -7
23 -28 29 -43 52 -30 44 11 -7 12 -4 2 13 -6 12 -15 19 -19 16 -7 -4 -18 20
-25 55 -6 28 -53 99 -67 103 -11 3 -19 10 -19 17 0 6 5 8 12 4 14 -9 -30 66
-48 81 -17 14 -61 87 -106 174 -21 41 -38 70 -38 65 0 -9 -22 25 -36 56 -4 8
-19 28 -33 44 -14 16 -19 26 -11 22 9 -5 8 -2 -2 7 -10 8 -18 17 -18 21 0 14
-54 81 -93 116 -26 23 -40 46 -42 65 -2 16 -14 38 -25 47 -12 10 -19 18 -15
18 4 0 2 7 -6 16 -12 14 -14 14 -21 -5 -8 -22 -28 -29 -28 -10 0 5 5 7 12 3 8
-5 9 -2 5 10 -4 10 -7 25 -7 34 0 9 -34 59 -76 111 -41 52 -82 107 -92 123 -9
15 -21 28 -27 28 -5 0 -23 18 -38 40 -16 22 -36 40 -44 40 -9 0 -13 3 -10 6
12 13 -14 46 -31 39 -9 -3 -13 -3 -9 1 4 4 -1 13 -11 20 -9 7 -18 17 -18 23
-1 6 -2 16 -3 21 0 6 -8 10 -16 10 -8 0 -15 7 -15 15 0 8 -6 15 -13 15 -8 0
-20 11 -27 25 -7 14 -15 23 -18 20 -5 -5 -42 39 -42 49 0 3 -18 22 -40 42 -22
20 -40 43 -40 51 0 8 -4 12 -9 9 -5 -3 -14 1 -21 9 -7 8 -10 15 -7 15 3 0 -5
11 -19 25 -14 14 -29 23 -33 21 -4 -3 -25 14 -47 37 l-39 42 45 -40 45 -40
-35 40 c-42 47 -52 55 -61 49 -4 -2 -11 1 -15 7 -4 8 -3 9 4 5 21 -13 12 0
-20 30 -27 24 -29 24 -13 4 18 -22 18 -23 1 -10 -10 8 -22 25 -27 37 -5 13
-20 28 -33 33 -13 5 -28 15 -32 22 -6 10 -4 10 9 -1 9 -7 17 -11 17 -9 0 6
-134 113 -142 113 -3 0 -10 4 -15 9 -5 6 -2 6 7 1 13 -8 13 -7 1 8 -7 9 -20
17 -28 17 -8 0 -11 5 -8 10 3 6 1 10 -5 10 -6 0 -25 16 -43 36 -18 19 -61 56
-97 82 -36 25 -101 75 -144 111 -44 35 -76 58 -72 50 5 -9 3 -9 -6 2 -7 8 -21
18 -31 22 -10 4 -16 11 -13 16 3 4 -13 16 -35 26 -22 10 -49 29 -59 42 -10 13
-25 23 -33 23 -8 0 -17 7 -21 15 -3 8 -12 15 -20 15 -7 0 -31 16 -52 35 -22
19 -44 35 -50 35 -7 0 -15 7 -18 16 -3 8 -10 12 -16 9 -5 -3 -10 -2 -10 2 0 5
-8 13 -19 18 -79 42 -107 59 -114 71 -4 8 -25 23 -45 34 -20 11 -49 28 -64 38
-128 82 -235 142 -254 142 -7 0 -15 6 -17 13 -4 9 -6 8 -6 -2 -1 -9 -8 -5 -20
10 -10 13 -42 33 -70 43 -28 10 -53 22 -56 26 -3 5 -58 34 -123 65 -64 32
-147 72 -183 91 -37 18 -69 30 -73 27 -3 -4 -6 -1 -6 5 0 7 -7 12 -16 12 -9 0
-37 11 -63 25 -25 13 -71 33 -101 43 -30 11 -89 34 -130 52 -118 50 -149 59
-154 46 -3 -8 -7 -8 -13 0 -17 21 -82 55 -111 57 -17 1 -28 6 -24 11 3 5 -4 7
-16 4 -12 -3 -23 -1 -24 4 -2 6 -18 11 -35 12 -17 0 -30 3 -28 7 2 3 -17 11
-43 18 -26 7 -56 16 -67 21 -21 9 -181 58 -212 65 -10 2 -79 20 -153 39 -159
40 -491 108 -590 121 -19 2 -46 6 -60 9 -83 15 -241 36 -345 46 -66 6 -163 15
-215 21 -107 13 -844 20 -990 10z m615 -12 c280 -13 389 -20 395 -26 3 -3 -60
-1 -140 4 -80 4 -307 8 -505 8 -249 0 -326 2 -251 7 61 4 114 9 118 10 22 7
191 6 383 -3z m-917 -36 c-15 -2 -42 -2 -60 0 -18 2 -6 4 27 4 33 0 48 -2 33
-4z m1365 0 c-7 -2 -21 -2 -30 0 -10 3 -4 5 12 5 17 0 24 -2 18 -5z m50 0 c-7
-2 -19 -2 -25 0 -7 3 -2 5 12 5 14 0 19 -2 13 -5z m-2043 -113 c-9 -34 -47
-40 -59 -8 -9 25 5 36 45 34 17 -1 20 -5 14 -26z m-402 -82 c-5 -15 -135 -48
-201 -51 -65 -3 -38 16 46 32 34 7 78 16 97 21 51 12 62 11 58 -2z m545 -15
c-13 -2 -33 -2 -45 0 -13 2 -3 4 22 4 25 0 35 -2 23 -4z m250 0 c-13 -2 -35
-2 -50 0 -16 2 -5 4 22 4 28 0 40 -2 28 -4z m400 0 c-7 -2 -19 -2 -25 0 -7 3
-2 5 12 5 14 0 19 -2 13 -5z m2527 -9 c0 -2 -9 -4 -20 -4 -11 0 -20 4 -20 9 0
5 9 7 20 4 11 -3 20 -7 20 -9z m-3297 -11 c-7 -2 -19 -2 -25 0 -7 3 -2 5 12 5
14 0 19 -2 13 -5z m-125 -20 c-10 -2 -28 -2 -40 0 -13 2 -5 4 17 4 22 1 32 -1
23 -4z m2449 -10 c-9 -2 -14 -9 -11 -15 4 -7 2 -8 -4 -4 -20 12 -13 26 11 25
17 -1 18 -2 4 -6z m-3020 -45 c-3 -7 -5 -2 -5 12 0 14 2 19 5 13 2 -7 2 -19 0
-25z m3293 22 c10 -7 -8 -9 -60 -8 l-75 1 55 7 c30 4 57 7 60 8 3 1 12 -3 20
-8z m-587 -7 c-13 -2 -33 -2 -45 0 -13 2 -3 4 22 4 25 0 35 -2 23 -4z m-1956
-9 c-3 -3 -12 -4 -19 -1 -8 3 -5 6 6 6 11 1 17 -2 13 -5z m-961 -34 c-1 -16
-5 -30 -9 -30 -5 0 -5 -4 -2 -10 3 -5 2 -10 -3 -10 -11 0 -10 49 1 68 12 18
14 15 13 -18z m41 24 c-3 -3 -12 -4 -19 -1 -8 3 -5 6 6 6 11 1 17 -2 13 -5z
m3210 -11 c-20 -2 -52 -2 -70 0 -17 2 0 4 38 4 39 0 53 -2 32 -4z m-3291 -22
c-3 -5 -16 -11 -28 -14 -22 -6 -22 -5 -4 8 22 17 40 20 32 6z m4594 -6 c7 -8
8 -15 2 -15 -5 0 -15 7 -22 15 -7 8 -8 15 -2 15 5 0 15 -7 22 -15z m-1053 -11
c-3 -3 -12 -4 -19 -1 -8 3 -5 6 6 6 11 1 17 -2 13 -5z m183 -4 c0 -6 -11 -8
-27 -4 -40 10 -41 14 -5 14 18 0 32 -5 32 -10z m960 0 c18 -12 2 -12 -25 0
-13 6 -15 9 -5 9 8 0 22 -4 30 -9z m-3867 -7 c-7 -2 -21 -2 -30 0 -10 3 -4 5
12 5 17 0 24 -2 18 -5z m3767 -23 c13 -11 19 -20 15 -20 -5 0 -17 7 -27 16
-14 14 -20 14 -33 4 -9 -7 -15 -8 -15 -2 0 9 14 19 31 21 3 1 16 -8 29 -19z
m150 10 c8 -5 11 -10 5 -10 -5 0 -17 5 -25 10 -8 5 -10 10 -5 10 6 0 17 -5 25
-10z m-4733 -16 c-3 -3 -12 -4 -19 -1 -8 3 -5 6 6 6 11 1 17 -2 13 -5z m4709
-7 c11 -11 -19 -8 -36 3 -12 8 -10 9 7 7 12 -2 26 -6 29 -10z m-4681 -7 c-3
-5 -14 -10 -23 -10 -15 0 -15 2 -2 10 20 13 33 13 25 0z m778 3 c-7 -2 -21 -2
-30 0 -10 3 -4 5 12 5 17 0 24 -2 18 -5z m-1083 -13 c0 -5 -5 -10 -11 -10 -5
0 -7 5 -4 10 3 6 8 10 11 10 2 0 4 -4 4 -10z m240 0 c0 -5 -4 -10 -10 -10 -5
0 -10 5 -10 10 0 6 5 10 10 10 6 0 10 -4 10 -10z m4590 0 c0 -5 -9 -10 -21
-10 -11 0 -17 5 -14 10 3 6 13 10 21 10 8 0 14 -4 14 -10z m65 1 c-3 -5 5 -12
17 -14 16 -3 13 -5 -11 -6 -29 -1 -32 1 -21 14 14 16 25 21 15 6z m-4718 -17
c-3 -3 -12 -4 -19 -1 -8 3 -5 6 6 6 11 1 17 -2 13 -5z m142 -10 c2 -2 -10 -4
-27 -4 -18 0 -32 5 -32 10 0 9 47 4 59 -6z m4541 -9 c0 -8 -2 -15 -4 -15 -2 0
-6 7 -10 15 -3 8 -1 15 4 15 6 0 10 -7 10 -15z m-4625 -5 c-3 -5 -14 -10 -23
-10 -15 0 -15 2 -2 10 20 13 33 13 25 0z m4685 -4 c0 -2 -11 -6 -25 -8 -14 -3
-25 -1 -25 3 0 5 11 9 25 9 14 0 25 -2 25 -4z m-4258 -27 c-12 -5 -22 -13 -22
-19 0 -5 -7 -10 -15 -10 -19 0 -19 5 1 29 10 12 24 17 37 13 20 -5 20 -5 -1
-13z m3828 -5 c0 -8 -4 -12 -10 -9 -5 3 -10 10 -10 16 0 5 5 9 10 9 6 0 10 -7
10 -16z m-4123 -40 c-3 -3 -12 -4 -19 -1 -8 3 -5 6 6 6 11 1 17 -2 13 -5z
m4380 0 c-3 -3 -12 -4 -19 -1 -8 3 -5 6 6 6 11 1 17 -2 13 -5z m-4260 -20 c-3
-3 -12 -4 -19 -1 -8 3 -5 6 6 6 11 1 17 -2 13 -5z m-307 -24 c0 -5 -9 -10 -19
-10 -11 0 -23 5 -26 10 -4 6 5 10 19 10 14 0 26 -4 26 -10z m238 3 c-10 -2
-26 -2 -35 0 -10 3 -2 5 17 5 19 0 27 -2 18 -5z m4329 -9 c-3 -3 -12 -4 -19
-1 -8 3 -5 6 6 6 11 1 17 -2 13 -5z m-4657 -24 c-20 -13 -40 -13 -40 0 0 6 12
10 28 10 21 0 24 -2 12 -10z m230 6 c0 -11 -19 -15 -25 -6 -3 5 1 10 9 10 9 0
16 -2 16 -4z m4510 -6 c0 -5 -4 -10 -9 -10 -6 0 -13 5 -16 10 -3 6 1 10 9 10
9 0 16 -4 16 -10z m-4754 -38 c-5 -8 -76 -4 -76 4 0 2 18 4 41 4 22 0 38 -4
35 -8z m135 -1 c-8 -5 -20 -7 -28 -4 -21 8 -15 13 15 13 20 0 23 -3 13 -9z
m-78 -28 c-7 -2 -19 -2 -25 0 -7 3 -2 5 12 5 14 0 19 -2 13 -5z m-737 -18
c-11 -8 -29 -15 -40 -14 -15 0 -11 4 14 14 45 17 49 17 26 0z m534 -40 c0 -9
-9 -15 -22 -15 -22 1 -23 1 -4 15 25 19 26 19 26 0z m5295 -5 c3 -5 1 -10 -4
-10 -6 0 -11 5 -11 10 0 6 2 10 4 10 3 0 8 -4 11 -10z m-6005 -35 c-14 -7 -27
-11 -30 -9 -6 7 22 24 40 23 9 0 5 -6 -10 -14z m479 -69 c-15 -14 -48 -14 -65
0 -18 15 -18 15 9 11 15 -2 30 0 33 5 4 6 10 6 17 -1 6 -6 9 -12 6 -15z m5791
1 c-28 -15 -62 -11 -38 4 7 5 24 9 38 9 l25 0 -25 -13z m-6394 -6 c-6 -9 -46
-22 -46 -15 0 3 10 9 23 14 29 11 29 11 23 1z m457 -34 c-4 -7 1 -6 10 2 10 8
20 11 24 7 3 -3 0 -6 -7 -6 -7 0 -10 -3 -7 -7 9 -9 -24 -32 -47 -33 -13 0 -17
5 -13 19 3 13 -1 21 -12 24 -9 2 1 4 21 4 26 1 36 -3 31 -10z m6063 -9 c4 -6
3 -8 -4 -4 -6 3 -13 2 -17 -4 -3 -5 -14 -10 -23 -10 -15 1 -15 2 2 15 24 18
33 19 42 3z m-6666 -49 c0 -5 -4 -9 -10 -9 -5 0 -10 7 -10 16 0 8 5 12 10 9 6
-3 10 -10 10 -16z m-77 -73 c-3 -25 -2 -70 2 -101 6 -52 9 -56 36 -62 27 -5
28 -7 14 -23 -21 -23 -83 -42 -92 -28 -3 6 3 18 13 26 18 13 18 14 -5 7 -20
-6 -23 -4 -18 9 4 10 -1 26 -13 38 -11 12 -17 24 -15 28 2 3 5 26 6 51 2 31
10 52 28 72 38 40 49 35 44 -17z m7017 8 c0 -14 -3 -15 -17 -3 -10 7 -20 15
-22 16 -2 2 5 3 17 3 14 0 22 -6 22 -16z m-6610 -25 c0 -5 -7 -9 -15 -9 -8 0
-15 7 -15 15 0 9 6 12 15 9 8 -4 15 -10 15 -15z m-490 1 c0 -5 -4 -10 -10 -10
-5 0 -10 5 -10 10 0 6 5 10 10 10 6 0 10 -4 10 -10z m7111 -20 c32 -26 3 -27
-31 0 -19 15 -21 20 -9 20 9 0 27 -9 40 -20z m612 -85 c4 -8 22 -21 40 -29 31
-12 58 -36 42 -36 -23 0 -105 56 -105 72 0 14 17 9 23 -7z m-7756 -17 c-3 -8
-6 -5 -6 6 -1 11 2 17 5 13 3 -3 4 -12 1 -19z m7515 7 c0 -5 -5 -11 -11 -13
-6 -2 -11 4 -11 13 0 9 5 15 11 13 6 -2 11 -8 11 -13z m-7236 -17 c12 -19 -6
-19 -27 0 l-21 21 21 -6 c12 -3 24 -10 27 -15z m7094 12 c0 -5 -4 -10 -9 -10
-5 0 -16 -3 -25 -6 -9 -3 -16 -1 -16 4 0 9 16 17 43 21 4 0 7 -3 7 -9z m380
-41 c0 -14 -17 -10 -23 5 -4 10 -1 13 9 9 7 -3 14 -9 14 -14z m-50 -9 c0 -5
-4 -10 -10 -10 -5 0 -10 5 -10 10 0 6 5 10 10 10 6 0 10 -4 10 -10z m95 0 c-3
-5 -10 -10 -16 -10 -5 0 -9 5 -9 10 0 6 7 10 16 10 8 0 12 -4 9 -10z m-60 -20
c3 -5 1 -10 -4 -10 -6 0 -11 5 -11 10 0 6 2 10 4 10 3 0 8 -4 11 -10z m65 -16
c0 -2 -7 -4 -15 -4 -8 0 -15 4 -15 10 0 5 7 7 15 4 8 -4 15 -8 15 -10z m-16
-100 c17 -7 22 -44 6 -44 -5 0 -10 9 -10 19 0 15 -8 21 -32 24 -28 3 -29 4 -6
5 14 1 33 -1 42 -4z m19 -84 c4 -14 0 -20 -12 -20 -23 0 -31 9 -24 26 8 21 30
17 36 -6z m57 -55 c14 -16 10 -18 -14 -9 -9 3 -16 10 -16 15 0 14 16 11 30 -6z
m80 -46 c0 -11 -27 -12 -34 -1 -2 4 4 9 15 9 10 1 19 -2 19 -8z m243 -99 c29
0 48 -13 39 -26 -5 -7 -18 -8 -39 -2 -25 7 -33 14 -32 31 0 12 3 16 6 10 2 -7
14 -13 26 -13z m-36 -56 c-3 -3 -12 -4 -19 -1 -8 3 -5 6 6 6 11 1 17 -2 13 -5z
m62 -47 c0 -9 -2 -8 -6 1 -2 6 -10 9 -15 6 -7 -4 -8 -2 -4 5 9 13 26 5 25 -12z
m76 -17 c4 -6 -1 -7 -11 -3 -11 4 -15 2 -11 -4 4 -6 -3 -8 -18 -5 -14 2 -22 8
-19 13 7 12 51 11 59 -1z m309 -125 c3 -8 1 -15 -4 -15 -6 0 -10 7 -10 15 0 8
2 15 4 15 2 0 6 -7 10 -15z m-174 -35 c0 -5 -2 -10 -4 -10 -3 0 -8 5 -11 10
-3 6 -1 10 4 10 6 0 11 -4 11 -10z m75 -60 c3 -6 0 -10 -7 -10 -15 0 -38 19
-38 32 0 10 36 -8 45 -22z m440 -170 c14 -15 15 -20 4 -20 -19 1 -50 25 -42
33 10 11 19 8 38 -13z m-125 -110 c0 -5 -4 -10 -10 -10 -5 0 -10 5 -10 10 0 6
5 10 10 10 6 0 10 -4 10 -10z m90 -90 c0 -5 -2 -10 -4 -10 -3 0 -8 5 -11 10
-3 6 -1 10 4 10 6 0 11 -4 11 -10z m310 -84 c0 -11 -19 -15 -25 -6 -3 5 1 10
9 10 9 0 16 -2 16 -4z m-165 -57 c11 -17 -1 -21 -15 -4 -8 9 -8 15 -2 15 6 0
14 -5 17 -11z m135 -135 c0 -8 8 -14 18 -15 11 0 12 -2 4 -6 -16 -6 -54 26
-46 38 7 13 24 1 24 -17z m164 -203 c-8 -8 -44 32 -37 42 3 5 14 -1 24 -14 10
-13 16 -26 13 -28z m36 35 c0 -3 -4 -8 -10 -11 -5 -3 -10 -1 -10 4 0 6 5 11
10 11 6 0 10 -2 10 -4z m32 -48 c15 -26 13 -78 -4 -78 -6 0 -8 12 -4 30 4 22
1 32 -9 36 -16 7 -21 34 -6 34 5 0 15 -10 23 -22z m88 -155 c0 -20 -24 -11
-28 10 -2 12 1 15 12 11 9 -3 16 -13 16 -21z m83 -104 c-8 -8 -13 -7 -18 2 -5
8 -4 10 3 5 7 -4 12 -2 12 5 0 7 3 9 7 6 4 -4 2 -12 -4 -18z m113 -56 c-1 -38
-26 -42 -26 -4 0 19 5 31 14 31 8 0 13 -10 12 -27z m154 -85 c0 -6 8 -17 18
-24 12 -10 13 -13 3 -14 -16 0 -40 29 -41 48 0 7 5 10 10 7 6 -3 10 -11 10
-17z m-10 -53 c7 -8 8 -15 2 -15 -5 0 -15 7 -22 15 -7 8 -8 15 -2 15 5 0 15
-7 22 -15z m-100 -11 c0 -8 -4 -12 -10 -9 -5 3 -10 10 -10 16 0 5 5 9 10 9 6
0 10 -7 10 -16z m44 -40 c9 -3 16 -10 16 -14 0 -12 -33 -5 -38 8 -4 14 0 15
22 6z m136 -38 c0 -12 -5 -7 -19 24 -11 24 -11 24 3 6 9 -11 16 -24 16 -30z
m-35 24 c3 -5 -1 -10 -9 -10 -8 0 -18 5 -21 10 -3 6 1 10 9 10 8 0 18 -4 21
-10z m55 -190 c0 -5 -2 -10 -4 -10 -3 0 -8 5 -11 10 -3 6 -1 10 4 10 6 0 11
-4 11 -10z m14 -95 c-4 -8 -10 -12 -15 -9 -14 8 -10 24 6 24 9 0 12 -6 9 -15z
m26 -51 c0 -8 -5 -12 -10 -9 -6 4 -8 11 -5 16 9 14 15 11 15 -7z m180 -163 c0
-6 -4 -13 -10 -16 -5 -3 -10 1 -10 9 0 9 5 16 10 16 6 0 10 -4 10 -9z m-5464
-205 c354 -120 610 -228 929 -390 415 -211 816 -466 1130 -719 33 -27 69 -55
80 -64 142 -114 308 -267 460 -423 129 -132 145 -153 145 -189 0 -48 -28 -59
-151 -63 l-106 -3 -137 141 c-326 339 -764 693 -1156 934 -112 69 -281 170
-285 170 -2 0 -32 17 -66 39 -124 74 -497 260 -747 371 -139 61 -259 113 -267
114 -24 4 -65 48 -65 71 0 31 28 65 54 65 13 0 95 -24 182 -54z m5624 -120 c0
-8 -4 -18 -10 -21 -5 -3 -10 3 -10 14 0 12 5 21 10 21 6 0 10 -6 10 -14z m-30
-47 c0 -11 -4 -17 -10 -14 -5 3 -10 13 -10 21 0 8 5 14 10 14 6 0 10 -9 10
-21z m45 2 c3 -5 2 -12 -3 -15 -5 -3 -9 1 -9 9 0 17 3 19 12 6z m5 -82 c0 -5
-4 -9 -10 -9 -5 0 -10 7 -10 16 0 8 5 12 10 9 6 -3 10 -10 10 -16z m120 -278
c-1 -25 -1 -25 -15 8 -19 42 -19 47 0 31 8 -7 15 -24 15 -39z m179 -427 c7
-19 10 -38 7 -41 -3 -3 -8 3 -11 13 -4 10 -11 27 -16 36 -11 22 -11 28 -1 28
4 0 14 -16 21 -36z m57 -79 c6 -25 8 -47 6 -50 -9 -9 -39 59 -34 77 7 30 17
21 28 -27z m281 -1087 c-3 -7 -5 -2 -5 12 0 14 2 19 5 13 2 -7 2 -19 0 -25z
m-8705 -1308 c-2 -16 -6 -30 -8 -30 -2 0 -4 14 -4 30 0 17 4 30 8 30 5 0 7
-13 4 -30z m728 -1155 c0 -5 -5 -3 -10 5 -5 8 -14 16 -20 16 -23 3 -24 5 -11
13 15 10 40 -12 41 -34z"/>
<path d="M11638 16313 c7 -3 16 -2 19 1 4 3 -2 6 -13 5 -11 0 -14 -3 -6 -6z"/>
<path d="M14748 17473 c6 -2 18 -2 25 0 6 3 1 5 -13 5 -14 0 -19 -2 -12 -5z"/>
<path d="M11371 16291 c-8 -14 -7 -22 5 -32 11 -9 14 -22 10 -41 -8 -39 11
-26 19 13 5 23 3 34 -12 44 -17 14 -17 14 3 15 11 0 25 -5 32 -12 9 -9 12 -7
12 10 0 18 -6 22 -30 22 -19 0 -33 -7 -39 -19z"/>
<path d="M11290 16250 c0 -5 5 -10 11 -10 5 0 7 5 4 10 -3 6 -8 10 -11 10 -2
0 -4 -4 -4 -10z"/>
<path d="M11234 16209 c-17 -18 -22 -28 -12 -24 14 6 55 55 45 55 -2 0 -16
-14 -33 -31z"/>
<path d="M11180 16155 c-7 -8 -19 -15 -27 -15 -8 0 -11 -5 -8 -11 5 -7 13 -5
25 6 14 13 19 13 23 3 3 -7 6 -3 6 10 1 26 -2 27 -19 7z"/>
<path d="M11083 16106 c-25 -17 -28 -23 -17 -34 11 -10 15 -8 24 7 5 11 19 21
29 23 14 2 16 6 7 14 -9 8 -20 5 -43 -10z"/>
<path d="M11360 16120 c0 -5 7 -7 15 -4 8 4 15 8 15 10 0 2 -7 4 -15 4 -8 0
-15 -4 -15 -10z"/>
<path d="M11410 16079 c0 -5 5 -7 10 -4 6 3 10 8 10 11 0 2 -4 4 -10 4 -5 0
-10 -5 -10 -11z"/>
<path d="M11005 16050 c-3 -5 -1 -10 4 -10 6 0 11 5 11 10 0 6 -2 10 -4 10 -3
0 -8 -4 -11 -10z"/>
<path d="M10860 15940 c-9 -6 -10 -10 -3 -10 6 0 15 5 18 10 8 12 4 12 -15 0z"/>
<path d="M11230 15940 c-9 -6 -10 -10 -3 -10 6 0 15 5 18 10 8 12 4 12 -15 0z"/>
<path d="M10536 15662 c-3 -5 1 -9 9 -9 8 0 12 4 9 9 -3 4 -7 8 -9 8 -2 0 -6
-4 -9 -8z"/>
<path d="M10328 15313 c12 -2 32 -2 45 0 12 2 2 4 -23 4 -25 0 -35 -2 -22 -4z"/>
<path d="M9782 14898 c-60 -72 -80 -103 -70 -108 7 -4 58 -13 113 -20 136 -17
132 -14 96 -58 -17 -20 -56 -69 -88 -108 -102 -124 -168 -208 -185 -234 -8
-14 -29 -41 -47 -60 -17 -19 -40 -45 -51 -58 -11 -12 -20 -29 -20 -37 0 -8 -4
-15 -9 -15 -5 0 -18 -15 -29 -32 -11 -18 -31 -48 -43 -66 l-22 -34 49 6 c27 3
121 10 209 16 88 6 183 13 210 15 28 2 186 9 351 15 344 14 1478 8 1739 -9
414 -28 494 -33 695 -52 246 -22 337 -32 540 -60 359 -49 380 -54 380 -89 0
-10 4 -20 9 -22 12 -4 81 -227 81 -261 0 -15 5 -27 10 -27 17 0 11 -60 -9 -81
l-19 -21 -159 26 c-913 148 -1849 207 -2928 186 -423 -9 -849 -27 -1170 -51
-184 -13 -489 -39 -491 -42 -4 -4 -109 -213 -116 -230 -8 -18 -3 -19 96 -12
65 5 111 3 122 -3 13 -7 21 -6 29 3 7 9 53 15 150 19 77 4 163 9 190 12 28 4
47 3 42 -2 -8 -8 -171 -25 -290 -29 -57 -2 -83 -7 -97 -20 -11 -10 -17 -21
-15 -25 3 -4 -2 -10 -10 -14 -8 -3 -15 -12 -15 -21 0 -12 12 -15 55 -15 54 0
55 0 55 30 0 30 0 30 59 30 33 0 63 5 66 10 3 6 40 10 81 10 41 0 74 4 74 9 0
13 59 19 120 11 l55 -7 -72 -2 c-71 -1 -73 -2 -73 -26 0 -16 -6 -25 -15 -25
-22 0 -18 -17 5 -23 18 -5 20 -14 20 -91 l0 -85 78 -3 77 -3 3 -157 3 -158
194 0 c120 0 196 -4 200 -10 4 -6 11 -8 16 -4 5 3 19 7 32 10 46 9 97 31 90
39 -5 4 0 5 10 2 10 -4 30 -1 45 7 15 7 43 16 62 20 19 3 71 17 115 30 44 14
93 27 109 31 24 5 27 8 15 16 -10 8 -7 9 12 5 15 -3 51 3 80 13 30 10 56 18
59 18 32 1 118 28 113 36 -3 6 -1 7 5 3 12 -7 169 30 188 45 6 5 14 6 17 3 3
-3 12 -2 19 2 7 4 19 9 28 9 25 3 84 17 95 23 5 3 18 7 30 8 28 4 84 16 270
58 281 63 385 84 590 120 572 101 1113 156 1543 156 189 0 203 -1 222 -20 11
-11 20 -33 20 -49 0 -16 4 -31 9 -33 8 -3 77 -205 83 -243 2 -11 6 -22 10 -25
14 -11 13 -64 -2 -55 -5 3 -10 -1 -10 -9 0 -22 -13 -23 -300 -36 -1586 -71
-3376 -478 -5175 -1177 l-149 -58 -24 -124 c-12 -68 -21 -125 -19 -127 2 -2
28 5 58 17 30 11 77 28 104 38 28 10 106 40 175 66 69 25 193 71 275 101 83
31 166 61 185 69 97 37 122 45 144 45 14 0 26 4 28 8 2 4 77 32 168 61 91 29
187 62 214 72 27 11 55 19 64 19 8 0 42 9 76 20 378 123 476 146 476 109 0 -5
-12 -9 -27 -10 l-28 -1 25 -7 c14 -4 27 -4 30 -1 3 4 16 13 29 20 l24 13 -29
13 c-22 10 -23 12 -5 8 16 -4 21 -3 17 5 -4 6 0 11 11 11 15 0 136 32 244 65
16 5 20 4 14 -2 -5 -6 -50 -23 -100 -38 -79 -24 -87 -29 -66 -37 16 -5 27 -5
31 2 4 7 45 10 111 8 l104 -3 3 -157 3 -157 157 -3 157 -3 3 -157 3 -157 157
-3 157 -3 3 -157 3 -157 157 -3 157 -3 3 -157 3 -157 157 -3 157 -3 3 -157 3
-157 157 -3 157 -3 3 -157 3 -157 157 -3 157 -3 3 -157 3 -157 157 -3 157 -3
3 -157 3 -157 157 -3 c155 -3 157 -3 158 -25 1 -13 6 -29 13 -36 13 -16 5 -27
-21 -27 -26 0 -25 -56 0 -63 24 -6 33 -50 25 -118 l-6 -52 36 7 c31 6 37 4 38
-11 1 -13 3 -10 9 7 l8 25 1 -27 c1 -15 5 -29 10 -33 6 -3 6 -17 1 -34 -6 -22
-3 -37 12 -62 11 -19 25 -37 29 -40 16 -9 68 -144 58 -147 -5 -2 -9 -21 -9
-43 0 -31 4 -39 18 -39 10 0 25 -11 32 -25 7 -14 17 -26 22 -26 4 -1 14 -2 21
-3 6 -1 11 -7 9 -14 -1 -7 2 -12 8 -12 5 0 10 -4 10 -10 0 -5 23 -43 51 -85
30 -43 49 -81 45 -90 -3 -8 0 -15 7 -15 7 0 49 -44 93 -97 43 -54 117 -136
164 -182 143 -142 385 -335 445 -356 17 -6 29 -16 27 -23 -1 -7 1 -11 5 -10
11 3 117 -53 121 -63 2 -5 13 -9 25 -9 18 0 19 -2 7 -10 -13 -9 -12 -13 9 -30
24 -21 57 -28 46 -10 -3 6 -15 10 -26 10 -10 0 -19 4 -19 8 0 20 15 20 54 -2
51 -28 169 -75 301 -120 70 -24 91 -35 70 -35 -17 -1 -45 3 -63 8 -20 6 -32 6
-32 0 0 -5 11 -9 25 -9 14 0 25 -5 25 -11 0 -9 21 -10 72 -5 45 4 69 3 63 -3
-6 -5 -19 -11 -30 -14 -16 -3 -13 -6 13 -12 17 -4 32 -11 32 -16 0 -5 17 -9
37 -9 26 0 34 -3 26 -11 -16 -16 -82 -21 -117 -8 -24 9 -38 9 -52 1 -18 -11
-18 -11 3 -12 12 0 25 -5 28 -10 4 -6 10 -8 14 -6 4 3 21 1 37 -4 23 -7 25 -8
7 -9 -31 -1 -53 -11 -53 -25 0 -7 44 -12 143 -15 78 -2 145 -5 150 -8 4 -2 7
-33 7 -68 l0 -64 78 -3 77 -3 3 -157 3 -157 157 -3 157 -3 3 -157 3 -157 157
-3 157 -3 3 -157 3 -157 157 -3 157 -3 3 -157 3 -157 157 -3 157 -3 3 -157 3
-157 157 -3 157 -3 3 -157 3 -157 157 -3 157 -3 3 -157 3 -157 157 -3 157 -3
3 -157 3 -157 157 -3 157 -3 3 -157 3 -157 157 -3 157 -3 3 -157 3 -157 77 -3
77 -3 3 -37 c3 -35 5 -38 35 -38 39 0 54 -9 54 -32 0 -11 -8 -18 -19 -18 -11
0 -16 -4 -13 -10 4 -6 -7 -10 -24 -10 -17 0 -31 -4 -31 -10 0 -10 -54 -41 -67
-39 -10 3 -86 -31 -93 -40 -3 -4 -21 -13 -40 -20 -19 -8 -57 -24 -85 -36 -27
-13 -81 -35 -120 -50 -38 -15 -83 -32 -100 -39 -110 -46 -564 -185 -805 -246
-25 -6 -70 -18 -100 -25 -150 -39 -521 -105 -750 -134 -464 -58 -1122 -67
-1580 -20 -465 47 -1031 159 -1405 279 -55 17 -120 38 -145 45 -95 29 -409
144 -485 177 -44 20 -125 55 -180 78 -183 77 -637 309 -800 410 -221 136 -438
279 -443 292 -2 4 -7 8 -12 8 -9 0 -268 192 -340 252 -25 20 -104 86 -177 145
-72 59 -184 158 -250 218 -139 129 -466 470 -548 570 -32 39 -79 95 -105 125
-41 48 -169 210 -284 360 -36 48 -286 418 -286 424 0 1 -26 45 -57 97 -498
824 -831 1754 -968 2699 -33 224 -52 411 -61 578 -12 225 -21 132 -13 -128 42
-1340 463 -2646 1213 -3769 360 -538 743 -975 1256 -1435 284 -253 709 -563
1074 -781 1195 -713 2590 -1069 3981 -1014 1077 42 2068 296 3008 771 570 288
1026 600 1590 1086 l96 83 -34 98 c-259 743 -677 1428 -1132 1854 -204 191
-334 281 -577 397 -308 149 -600 254 -926 334 -467 115 -904 162 -2010 216
-280 14 -398 26 -546 56 -498 100 -944 341 -1294 700 -138 142 -229 254 -311
384 -29 47 -56 87 -59 90 -3 3 -23 42 -45 88 -21 45 -43 82 -47 82 -4 0 -8 6
-8 12 0 19 -74 202 -82 206 -5 2 -8 13 -8 23 0 11 -13 70 -29 132 -17 62 -33
133 -37 160 -3 26 -10 47 -14 47 -8 0 -23 195 -24 320 -1 125 16 360 25 360 5
0 9 15 9 33 0 40 26 193 47 272 14 54 19 85 22 138 1 11 6 15 13 11 7 -5 9 -2
5 9 -3 9 -2 17 3 19 5 2 11 14 13 28 3 14 17 56 31 94 14 37 26 77 26 88 0 10
4 16 10 13 5 -3 13 7 16 22 4 15 14 38 22 51 8 12 10 22 6 22 -5 0 -4 4 1 8
14 10 35 49 35 66 0 8 4 16 8 18 11 4 82 123 82 137 0 6 4 11 8 11 5 0 26 26
48 58 21 31 42 59 45 62 3 3 25 28 49 55 62 73 131 144 191 195 29 25 68 60
86 78 19 17 37 32 40 32 3 0 42 28 86 63 45 34 132 95 192 136 61 41 114 78
119 82 10 9 -31 111 -46 117 -5 2 -8 10 -8 18 0 22 -72 194 -82 194 -4 0 -8 8
-8 17 0 25 -72 203 -82 203 -4 0 -8 9 -8 20 0 25 -70 204 -81 208 -5 2 -9 13
-9 24 0 26 -71 222 -82 226 -4 2 -8 11 -8 20 0 23 -73 236 -82 240 -4 2 -8 13
-8 24 0 26 -73 262 -82 266 -5 2 -8 15 -8 28 0 14 -7 54 -16 89 -18 72 2 59
-219 142 -946 355 -1943 614 -3095 802 -279 46 -523 81 -560 81 -19 0 -43 -23
-108 -102z m8 -1478 c0 -5 -6 -10 -12 -10 -10 0 -10 -2 -2 -8 9 -5 8 -11 -2
-20 -12 -11 -14 -8 -14 18 0 20 5 30 15 30 8 0 15 -4 15 -10z m-127 -7 c-29
-2 -78 -2 -110 0 -32 2 -8 3 52 3 61 0 87 -1 58 -3z m-30 -20 c-13 -2 -35 -2
-50 0 -16 2 -5 4 22 4 28 0 40 -2 28 -4z m80 0 c-7 -2 -21 -2 -30 0 -10 3 -4
5 12 5 17 0 24 -2 18 -5z m-246 -39 c-3 -3 -12 -4 -19 -1 -8 3 -5 6 6 6 11 1
17 -2 13 -5z m101 -21 c-10 -2 -26 -2 -35 0 -10 3 -2 5 17 5 19 0 27 -2 18 -5z
m1367 -1003 c-11 -5 -27 -9 -35 -9 -9 0 -8 4 5 9 11 5 27 9 35 9 9 0 8 -4 -5
-9z m-105 -40 c0 -13 -30 -13 -50 0 -11 7 -7 10 18 10 17 0 32 -4 32 -10z
m-180 -30 c-14 -4 -34 -8 -45 -8 -16 0 -15 2 5 8 14 4 34 8 45 8 16 0 15 -2
-5 -8z m-73 -16 c-3 -3 -12 -4 -19 -1 -8 3 -5 6 6 6 11 1 17 -2 13 -5z m2540
-2391 c-3 -10 -5 -2 -5 17 0 19 2 27 5 18 2 -10 2 -26 0 -35z m22 -113 c-1
-41 -2 -42 -9 -15 -4 17 -8 44 -9 60 0 23 2 26 9 15 5 -8 9 -35 9 -60z m8
-137 c-2 -16 -4 -5 -4 22 0 28 2 40 4 28 2 -13 2 -35 0 -50z m37 -167 c9 -44
14 -81 12 -84 -3 -2 -10 23 -17 56 -7 34 -15 59 -18 57 -3 -1 -6 22 -7 54 0
63 3 53 30 -83z m84 -281 c-3 -3 -9 2 -12 12 -6 14 -5 15 5 6 7 -7 10 -15 7
-18z m1839 -1529 c11 0 19 -4 16 -8 -2 -5 22 -9 54 -9 32 -1 50 -3 41 -6 -13
-3 -18 -15 -18 -44 0 -38 -1 -39 -34 -39 -34 0 -35 1 -38 42 l-3 43 -70 17
c-60 16 -63 17 -20 12 28 -4 60 -7 72 -8z m781 -73 c-10 -2 -28 -2 -40 0 -13
2 -5 4 17 4 22 1 32 -1 23 -4z m49 1 c-3 -3 -12 -4 -19 -1 -8 3 -5 6 6 6 11 1
17 -2 13 -5z m66 -11 c-7 -2 -19 -2 -25 0 -7 3 -2 5 12 5 14 0 19 -2 13 -5z
m2717 -3391 c0 -14 -69 -42 -86 -35 -11 4 -5 10 23 24 42 19 63 23 63 11z"/>
<path d="M21239 14482 c5 -10 18 -25 27 -33 16 -12 16 -10 -1 19 -20 33 -43
46 -26 14z"/>
<path d="M8952 13180 c0 -14 2 -19 5 -12 2 6 2 18 0 25 -3 6 -5 1 -5 -13z"/>
<path d="M9720 12701 c-8 -6 -18 -7 -22 -5 -4 3 -8 0 -8 -5 0 -6 3 -11 8 -11
12 1 58 29 47 29 -5 1 -17 -3 -25 -8z"/>
<path d="M9611 12663 c-40 -27 -31 -29 22 -4 23 11 33 20 25 23 -7 3 -28 -6
-47 -19z"/>
<path d="M9480 12618 c-30 -12 -50 -23 -45 -24 6 -2 39 7 75 21 36 13 56 24
45 24 -11 0 -45 -10 -75 -21z"/>
<path d="M8755 12339 c-11 -17 -2 -18 19 -3 17 12 17 14 4 14 -9 0 -20 -5 -23
-11z"/>
<path d="M8496 12211 c-4 -5 3 -7 14 -4 23 6 26 13 6 13 -8 0 -17 -4 -20 -9z"/>
<path d="M10088 12103 c7 -3 16 -2 19 1 4 3 -2 6 -13 5 -11 0 -14 -3 -6 -6z"/>
<path d="M10110 12070 c20 -13 40 -13 40 0 0 6 -12 10 -27 10 -22 0 -25 -2
-13 -10z"/>
<path d="M19057 10903 c-13 -13 -7 -89 11 -123 9 -19 42 -54 72 -78 30 -24 66
-52 78 -63 25 -20 42 -25 42 -10 0 13 -138 231 -163 259 -22 23 -29 26 -40 15z"/>
<path d="M13500 8570 c0 -5 5 -10 11 -10 5 0 7 5 4 10 -3 6 -8 10 -11 10 -2 0
-4 -4 -4 -10z"/>
<path d="M13551 8564 c0 -11 3 -14 6 -6 3 7 2 16 -1 19 -3 4 -6 -2 -5 -13z"/>
<path d="M13587 8503 c5 -20 83 -86 91 -78 4 4 -86 95 -94 95 -1 0 0 -8 3 -17z"/>
<path d="M14140 7983 c0 -10 7 -26 14 -36 21 -27 30 -2 10 28 -19 30 -24 31
-24 8z"/>
<path d="M14212 7942 c-9 -6 -5 -12 14 -21 30 -13 39 -9 31 14 -7 16 -25 19
-45 7z"/>
<path d="M14424 7775 c14 -10 15 -15 6 -15 -11 0 -11 -3 -3 -11 9 -9 20 -8 45
4 28 14 30 17 11 17 -13 0 -23 5 -23 10 0 6 -12 10 -27 10 -27 -1 -27 -1 -9
-15z"/>
<path d="M14520 7786 c0 -2 11 -6 25 -8 13 -3 22 -1 19 3 -5 9 -44 13 -44 5z"/>
<path d="M14588 7763 c7 -3 16 -2 19 1 4 3 -2 6 -13 5 -11 0 -14 -3 -6 -6z"/>
<path d="M14541 7750 c-19 -11 5 -23 25 -12 14 8 14 10 2 15 -8 3 -21 2 -27
-3z"/>
<path d="M14462 7729 c2 -6 7 -10 11 -10 4 1 14 1 22 1 8 0 15 5 15 10 0 6
-12 10 -26 10 -14 0 -24 -5 -22 -11z"/>
<path d="M14714 7653 c15 -15 85 -36 136 -40 62 -6 65 3 4 13 -21 3 -57 12
-79 20 -43 15 -73 18 -61 7z"/>
<path d="M18990 7524 c451 -304 835 -726 1106 -1217 49 -88 186 -363 208 -417
104 -257 142 -361 200 -564 26 -88 48 -162 50 -164 11 -10 525 576 557 635 14
25 -12 84 -108 252 -199 345 -488 671 -818 922 -171 130 -429 285 -635 381
-179 84 -500 204 -650 243 -14 4 27 -28 90 -71z"/>
<path d="M14808 7553 c7 -3 16 -2 19 1 4 3 -2 6 -13 5 -11 0 -14 -3 -6 -6z"/>
<path d="M14730 7515 c0 -8 11 -17 25 -21 41 -10 51 1 16 19 -41 21 -41 21
-41 2z"/>
<path d="M14843 7503 c9 -2 23 -2 30 0 6 3 -1 5 -18 5 -16 0 -22 -2 -12 -5z"/>
<path d="M14970 7460 c-11 -7 -2 -10 33 -10 26 0 47 5 47 10 0 13 -60 13 -80
0z"/>
<path d="M14833 7433 c9 -2 25 -2 35 0 9 3 1 5 -18 5 -19 0 -27 -2 -17 -5z"/>
<path d="M14990 7420 c0 -11 7 -20 15 -20 8 0 15 9 15 20 0 11 -7 20 -15 20
-8 0 -15 -9 -15 -20z"/>
<path d="M14918 7413 c6 -2 18 -2 25 0 6 3 1 5 -13 5 -14 0 -19 -2 -12 -5z"/>
<path d="M14850 7366 c0 -2 14 -6 30 -8 17 -3 30 -1 30 4 0 4 -13 8 -30 8 -16
0 -30 -2 -30 -4z"/>
<path d="M18358 3993 c-10 -2 -18 -9 -18 -14 0 -6 8 -5 20 1 11 6 20 13 20 15
0 3 -1 4 -2 4 -2 -1 -11 -3 -20 -6z"/>
</g>
</svg>
