<svg xmlns="http://www.w3.org/2000/svg" width="250" height="145" viewBox="0 0 250 145" version="1.1"><path d="M 97.672 46.235 C 83.008 71.681, 70.642 93.065, 70.193 93.755 C 69.649 94.591, 67.225 91.175, 62.938 83.528 L 56.500 72.045 41.968 72.023 L 27.436 72 13.718 95.837 C 6.173 108.948, 0 120.064, 0 120.539 C 0 121.015, 3.038 126.708, 6.750 133.191 L 13.500 144.978 55.682 144.989 L 97.864 145 104.682 133.009 L 111.500 121.017 125 121.037 L 138.500 121.056 145.109 132.778 L 151.718 144.500 166.460 144.500 L 181.202 144.500 187.870 133 L 194.539 121.500 208.083 121.223 L 221.628 120.946 227.955 131.999 C 231.434 138.078, 234.479 142.854, 234.721 142.612 C 234.963 142.371, 232.390 137.373, 229.004 131.507 C 225.618 125.640, 223.055 120.314, 223.309 119.670 C 223.564 119.027, 226.471 113.866, 229.771 108.203 L 235.770 97.905 240.508 106.203 C 243.114 110.766, 246.066 115.863, 247.068 117.529 L 248.890 120.558 242.156 132.029 L 235.422 143.500 221.818 143.778 L 208.214 144.055 201.988 132.979 C 198.564 126.888, 195.544 122.122, 195.277 122.390 C 195.009 122.657, 197.629 127.854, 201.099 133.938 L 207.408 145 221.954 144.991 L 236.500 144.983 243.500 132.741 C 250.457 120.575, 252.022 117.251, 250.285 118.324 C 249.582 118.758, 227.850 82.576, 223.653 73.983 C 223.017 72.681, 226.193 66.379, 236.403 48.687 C 243.881 35.728, 250 24.818, 250 24.443 C 250 24.068, 246.963 18.419, 243.250 11.889 L 236.500 0.017 221.944 0.009 L 207.389 0 200.820 11.571 L 194.251 23.142 187.748 11.821 L 181.244 0.500 152.789 0.235 L 124.333 -0.030 97.672 46.235 M 119.250 11.848 C 115.813 17.806, 113 22.991, 113 23.370 C 113 23.749, 118.730 23.934, 125.733 23.780 L 138.466 23.500 144.654 13 C 148.057 7.225, 150.877 2.163, 150.921 1.750 C 150.964 1.337, 145.262 1.004, 138.250 1.008 L 125.500 1.016 119.250 11.848 M 173.751 13.021 L 167.221 24.237 173.794 35.602 C 177.408 41.853, 180.446 46.862, 180.545 46.734 C 181.768 45.136, 192.997 24.893, 192.988 24.303 C 192.981 23.861, 190.119 18.619, 186.628 12.652 L 180.281 1.805 173.751 13.021 M 229.250 12.848 C 225.813 18.806, 223 23.990, 223 24.368 C 223 24.746, 225.759 29.784, 229.130 35.564 C 232.502 41.344, 235.026 46.308, 234.739 46.595 C 234.452 46.882, 231.846 42.928, 228.949 37.808 C 226.051 32.689, 223.242 27.931, 222.706 27.236 C 221.997 26.316, 220.103 28.766, 215.752 36.236 C 212.463 41.881, 209.582 46.979, 209.350 47.565 C 209.118 48.150, 211.834 53.691, 215.386 59.877 L 221.843 71.124 224.341 66.812 C 244.030 32.833, 248.266 25.343, 248.297 24.458 C 248.327 23.596, 236.159 1.983, 235.658 2.008 C 235.571 2.012, 232.688 6.890, 229.250 12.848 M 105.500 35.630 C 102.200 41.444, 99.350 46.606, 99.167 47.101 C 98.980 47.605, 104.473 47.987, 111.667 47.970 L 124.500 47.941 130.500 37.370 C 133.800 31.556, 136.650 26.394, 136.833 25.899 C 137.020 25.395, 131.527 25.013, 124.333 25.030 L 111.500 25.059 105.500 35.630 M 141.107 27.250 C 141.755 28.488, 144.722 33.663, 147.701 38.750 L 153.117 48 166.058 48 C 173.176 48, 179 47.765, 179 47.477 C 179 47.189, 176.188 42.019, 172.750 35.988 L 166.500 25.023 153.215 25.011 L 139.930 25 141.107 27.250 M 132.208 36.872 C 128.793 42.858, 126 48.107, 126 48.536 C 126 48.964, 128.741 54.003, 132.090 59.734 C 135.440 65.464, 137.990 70.343, 137.758 70.575 C 137.526 70.807, 134.673 66.286, 131.418 60.528 C 128.163 54.770, 125.275 50.051, 125 50.041 C 124.725 50.031, 121.744 54.856, 118.376 60.762 L 112.253 71.500 124.876 71.787 C 139.607 72.122, 137.772 73.282, 146.393 58.188 L 152.075 48.240 146.379 38.370 C 143.246 32.942, 140.173 27.935, 139.549 27.243 C 138.674 26.274, 136.998 28.473, 132.208 36.872 M 189.968 33.128 C 187.624 37.183, 184.686 42.300, 183.439 44.500 L 181.174 48.500 187.694 59.789 L 194.214 71.078 200.736 59.819 L 207.259 48.560 204.436 43.530 C 202.884 40.764, 199.953 35.633, 197.922 32.128 L 194.231 25.756 189.968 33.128 M 96.652 51.250 C 93.712 55.998, 85 71.207, 85 71.594 C 85 71.817, 90.737 71.996, 97.750 71.992 L 110.500 71.984 116.750 61.152 C 120.188 55.194, 123 50.023, 123 49.660 C 123 49.297, 117.385 49, 110.523 49 C 98.664 49, 97.977 49.111, 96.652 51.250 M 154 49.338 C 154 49.556, 156.843 54.632, 160.318 60.617 L 166.636 71.500 179.818 71.779 C 187.068 71.932, 193 71.847, 193 71.590 C 193 71.333, 190.158 66.257, 186.686 60.311 L 180.371 49.500 167.186 49.221 C 159.933 49.068, 154 49.120, 154 49.338 M 146.289 60.760 L 140.078 71.500 152.174 71.782 C 158.827 71.937, 164.445 71.888, 164.659 71.674 C 164.987 71.346, 153.162 49.981, 152.668 50.010 C 152.576 50.015, 149.705 54.853, 146.289 60.760 M 206.698 52.142 C 205.879 53.439, 202.937 58.515, 200.161 63.422 C 195.928 70.906, 195.289 72.680, 196.199 74.422 C 196.796 75.565, 199.735 80.684, 202.729 85.798 L 208.173 95.096 214.587 83.925 C 218.114 77.781, 221 72.638, 221 72.496 C 221 72.354, 218.117 67.186, 214.594 61.011 C 208.302 49.985, 208.161 49.827, 206.698 52.142 M 27.243 75.750 C 24.777 79.331, 16 94.736, 16 95.483 C 16 95.800, 21.730 95.934, 28.733 95.780 L 41.466 95.500 47.654 85 C 51.057 79.225, 53.877 74.162, 53.921 73.750 C 53.964 73.338, 48.406 73, 41.568 73 L 29.136 73 27.243 75.750 M 79.897 80.250 C 77.592 84.237, 74.604 89.412, 73.258 91.750 L 70.810 96 83.713 96 L 96.615 96 103.265 84.500 L 109.916 73 97.002 73 L 84.088 73 79.897 80.250 M 105.250 83.848 C 101.813 89.806, 99 94.977, 99 95.340 C 99 95.703, 104.758 96, 111.796 96 L 124.592 96 130.796 85.122 C 134.208 79.139, 137 73.964, 137 73.622 C 137 73.280, 131.262 73.004, 124.250 73.008 L 111.500 73.016 105.250 83.848 M 134.465 81.250 C 131.874 85.787, 128.873 90.963, 127.796 92.750 L 125.837 96 139.168 95.974 L 152.500 95.948 158.500 85.419 C 161.800 79.629, 164.650 74.465, 164.833 73.945 C 165.032 73.383, 159.903 73, 152.171 73 L 139.175 73 134.465 81.250 M 49.271 84.750 L 43.126 95.500 55.198 95.782 C 61.837 95.937, 67.474 95.859, 67.725 95.608 C 68.107 95.227, 56.212 74, 55.616 74 C 55.506 74, 52.651 78.838, 49.271 84.750 M 189.946 81.166 C 187.614 85.200, 184.670 90.300, 183.404 92.500 L 181.103 96.500 187.140 107 C 190.461 112.775, 193.643 118.063, 194.211 118.750 C 194.940 119.632, 199.041 120, 208.135 120 L 221.025 120 224.352 114.750 C 226.183 111.862, 229.310 106.563, 231.301 102.973 L 234.923 96.446 232.603 92.473 C 231.327 90.288, 228.384 85.210, 226.062 81.190 L 221.841 73.879 215.342 85.190 C 210.686 93.291, 209.097 96.926, 209.740 98 C 215.540 107.700, 221.187 118.147, 220.825 118.509 C 220.575 118.759, 217.699 114.249, 214.435 108.487 C 211.171 102.726, 208.275 98.016, 208 98.023 C 207.725 98.029, 204.861 102.774, 201.635 108.569 C 198.409 114.363, 195.543 118.876, 195.266 118.599 C 194.988 118.321, 197.552 113.319, 200.963 107.483 C 204.374 101.648, 206.954 96.339, 206.697 95.686 C 206.439 95.034, 203.519 89.850, 200.207 84.166 L 194.187 73.831 189.946 81.166 M 14.258 98.250 C 13.035 99.798, 2 119, 2 119.579 C 2 119.811, 7.738 119.992, 14.750 119.983 L 27.500 119.966 33.750 109.110 C 37.188 103.139, 40 97.972, 40 97.627 C 40 97.282, 34.430 97, 27.622 97 C 18.914 97, 14.952 97.370, 14.258 98.250 M 36.204 107.878 C 32.792 113.861, 30 119.050, 30 119.408 C 30 119.767, 35.707 119.934, 42.682 119.780 L 55.364 119.500 61.682 108.617 C 65.157 102.632, 68 97.569, 68 97.367 C 68 97.165, 62.242 97, 55.204 97 L 42.408 97 36.204 107.878 M 65.703 104.750 C 63.244 109.013, 60.235 114.188, 59.017 116.250 L 56.802 120 69.814 120 L 82.825 120 87.535 111.750 C 90.126 107.213, 93.127 102.037, 94.204 100.250 L 96.163 97 83.169 97 L 70.175 97 65.703 104.750 M 94.648 102.250 C 92.817 105.138, 89.692 110.434, 87.703 114.019 L 84.086 120.539 89.904 130.831 C 93.105 136.492, 96.144 141.544, 96.659 142.059 C 97.873 143.273, 110.390 121.459, 109.625 119.465 C 109.317 118.663, 106.562 113.671, 103.501 108.369 C 100.440 103.068, 98.122 98.545, 98.350 98.317 C 98.577 98.090, 101.557 102.875, 104.973 108.952 L 111.183 120 124.341 119.985 C 131.579 119.976, 137.977 119.639, 138.560 119.235 C 139.142 118.831, 142.379 113.662, 145.753 107.750 L 151.886 97 138.908 97 C 126.843 97, 125.996 97.124, 126.869 98.755 C 127.386 99.721, 130.116 104.506, 132.936 109.390 C 135.757 114.273, 137.878 118.455, 137.651 118.683 C 137.423 118.910, 134.443 114.125, 131.027 108.048 L 124.817 97 111.396 97 L 97.975 97 94.648 102.250 M 173.996 108.669 C 170.553 114.626, 167.736 119.950, 167.736 120.500 C 167.736 121.050, 170.553 126.374, 173.996 132.331 L 180.256 143.161 186.606 132.331 C 190.098 126.374, 192.956 121.050, 192.956 120.500 C 192.956 119.950, 190.098 114.626, 186.606 108.669 L 180.256 97.839 173.996 108.669 M 0.079 120.583 C 0.127 121.748, 0.364 121.985, 0.683 121.188 C 0.972 120.466, 0.936 119.603, 0.604 119.271 C 0.272 118.939, 0.036 119.529, 0.079 120.583 M 2 121.622 C 2 121.964, 4.792 127.139, 8.204 133.122 L 14.408 144 27.630 144 L 40.851 144 34.309 132.500 L 27.767 121 14.884 121 C 7.798 121, 2 121.280, 2 121.622 M 31.258 125.250 C 32.604 127.588, 35.592 132.762, 37.897 136.750 L 42.088 144 55.044 144 C 62.170 144, 68 143.765, 68 143.477 C 68 143.189, 65.188 138.019, 61.750 131.988 L 55.500 121.023 42.155 121.011 L 28.810 121 31.258 125.250 M 57.079 121.750 C 57.123 122.162, 59.943 127.225, 63.346 133 L 69.534 143.500 82.808 143.779 L 96.082 144.059 94.462 140.927 C 93.571 139.204, 90.610 134.016, 87.882 129.397 L 82.923 121 69.961 121 C 62.833 121, 57.036 121.338, 57.079 121.750 M 141.091 123.221 C 141.748 124.474, 144.722 129.662, 147.701 134.750 L 153.117 144 166.058 144 C 173.176 144, 179 143.802, 179 143.561 C 179 143.320, 176.158 138.257, 172.686 132.311 L 166.371 121.500 153.135 121.221 L 139.898 120.941 141.091 123.221" stroke="none" fill="#d999ec" fill-rule="evenodd"/><path d="M 119.250 11.848 C 115.813 17.806, 113 22.991, 113 23.370 C 113 23.749, 118.730 23.934, 125.733 23.780 L 138.466 23.500 144.654 13 C 148.057 7.225, 150.877 2.163, 150.921 1.750 C 150.964 1.337, 145.262 1.004, 138.250 1.008 L 125.500 1.016 119.250 11.848 M 173.751 13.021 L 167.221 24.237 173.794 35.602 C 177.408 41.853, 180.446 46.862, 180.545 46.734 C 181.768 45.136, 192.997 24.893, 192.988 24.303 C 192.981 23.861, 190.119 18.619, 186.628 12.652 L 180.281 1.805 173.751 13.021 M 229.250 12.848 C 225.813 18.806, 223 23.990, 223 24.368 C 223 24.746, 225.759 29.784, 229.130 35.564 C 232.502 41.344, 235.026 46.308, 234.739 46.595 C 234.452 46.882, 231.846 42.928, 228.949 37.808 C 226.051 32.689, 223.242 27.931, 222.706 27.236 C 221.997 26.316, 220.103 28.766, 215.752 36.236 C 212.463 41.881, 209.582 46.979, 209.350 47.565 C 209.118 48.150, 211.834 53.691, 215.386 59.877 L 221.843 71.124 224.341 66.812 C 244.030 32.833, 248.266 25.343, 248.297 24.458 C 248.327 23.596, 236.159 1.983, 235.658 2.008 C 235.571 2.012, 232.688 6.890, 229.250 12.848 M 105.500 35.630 C 102.200 41.444, 99.350 46.606, 99.167 47.101 C 98.980 47.605, 104.473 47.987, 111.667 47.970 L 124.500 47.941 130.500 37.370 C 133.800 31.556, 136.650 26.394, 136.833 25.899 C 137.020 25.395, 131.527 25.013, 124.333 25.030 L 111.500 25.059 105.500 35.630 M 141.107 27.250 C 141.755 28.488, 144.722 33.663, 147.701 38.750 L 153.117 48 166.058 48 C 173.176 48, 179 47.765, 179 47.477 C 179 47.189, 176.188 42.019, 172.750 35.988 L 166.500 25.023 153.215 25.011 L 139.930 25 141.107 27.250 M 132.208 36.872 C 128.793 42.858, 126 48.107, 126 48.536 C 126 48.964, 128.741 54.003, 132.090 59.734 C 135.440 65.464, 137.990 70.343, 137.758 70.575 C 137.526 70.807, 134.673 66.286, 131.418 60.528 C 128.163 54.770, 125.275 50.051, 125 50.041 C 124.725 50.031, 121.744 54.856, 118.376 60.762 L 112.253 71.500 124.876 71.787 C 139.607 72.122, 137.772 73.282, 146.393 58.188 L 152.075 48.240 146.379 38.370 C 143.246 32.942, 140.173 27.935, 139.549 27.243 C 138.674 26.274, 136.998 28.473, 132.208 36.872 M 189.968 33.128 C 187.624 37.183, 184.686 42.300, 183.439 44.500 L 181.174 48.500 187.694 59.789 L 194.214 71.078 200.736 59.819 L 207.259 48.560 204.436 43.530 C 202.884 40.764, 199.953 35.633, 197.922 32.128 L 194.231 25.756 189.968 33.128 M 96.652 51.250 C 93.712 55.998, 85 71.207, 85 71.594 C 85 71.817, 90.737 71.996, 97.750 71.992 L 110.500 71.984 116.750 61.152 C 120.188 55.194, 123 50.023, 123 49.660 C 123 49.297, 117.385 49, 110.523 49 C 98.664 49, 97.977 49.111, 96.652 51.250 M 154 49.338 C 154 49.556, 156.843 54.632, 160.318 60.617 L 166.636 71.500 179.818 71.779 C 187.068 71.932, 193 71.847, 193 71.590 C 193 71.333, 190.158 66.257, 186.686 60.311 L 180.371 49.500 167.186 49.221 C 159.933 49.068, 154 49.120, 154 49.338 M 206.698 52.142 C 205.879 53.439, 202.937 58.515, 200.161 63.422 C 195.928 70.906, 195.289 72.680, 196.199 74.422 C 196.796 75.565, 199.735 80.684, 202.729 85.798 L 208.173 95.096 214.587 83.925 C 218.114 77.781, 221 72.638, 221 72.496 C 221 72.354, 218.117 67.186, 214.594 61.011 C 208.302 49.985, 208.161 49.827, 206.698 52.142 M 27.243 75.750 C 24.777 79.331, 16 94.736, 16 95.483 C 16 95.800, 21.730 95.934, 28.733 95.780 L 41.466 95.500 47.654 85 C 51.057 79.225, 53.877 74.162, 53.921 73.750 C 53.964 73.338, 48.406 73, 41.568 73 L 29.136 73 27.243 75.750 M 79.897 80.250 C 77.592 84.237, 74.604 89.412, 73.258 91.750 L 70.810 96 83.713 96 L 96.615 96 103.265 84.500 L 109.916 73 97.002 73 L 84.088 73 79.897 80.250 M 105.250 83.848 C 101.813 89.806, 99 94.977, 99 95.340 C 99 95.703, 104.758 96, 111.796 96 L 124.592 96 130.796 85.122 C 134.208 79.139, 137 73.964, 137 73.622 C 137 73.280, 131.262 73.004, 124.250 73.008 L 111.500 73.016 105.250 83.848 M 134.465 81.250 C 131.874 85.787, 128.873 90.963, 127.796 92.750 L 125.837 96 139.168 95.974 L 152.500 95.948 158.500 85.419 C 161.800 79.629, 164.650 74.465, 164.833 73.945 C 165.032 73.383, 159.903 73, 152.171 73 L 139.175 73 134.465 81.250 M 49.271 84.750 L 43.126 95.500 55.198 95.782 C 61.837 95.937, 67.474 95.859, 67.725 95.608 C 68.107 95.227, 56.212 74, 55.616 74 C 55.506 74, 52.651 78.838, 49.271 84.750 M 189.946 81.166 C 187.614 85.200, 184.670 90.300, 183.404 92.500 L 181.103 96.500 187.140 107 C 190.461 112.775, 193.643 118.063, 194.211 118.750 C 194.940 119.632, 199.041 120, 208.135 120 L 221.025 120 224.352 114.750 C 226.183 111.862, 229.310 106.563, 231.301 102.973 L 234.923 96.446 232.603 92.473 C 231.327 90.288, 228.384 85.210, 226.062 81.190 L 221.841 73.879 215.342 85.190 C 210.686 93.291, 209.097 96.926, 209.740 98 C 215.540 107.700, 221.187 118.147, 220.825 118.509 C 220.575 118.759, 217.699 114.249, 214.435 108.487 C 211.171 102.726, 208.275 98.016, 208 98.023 C 207.725 98.029, 204.861 102.774, 201.635 108.569 C 198.409 114.363, 195.543 118.876, 195.266 118.599 C 194.988 118.321, 197.552 113.319, 200.963 107.483 C 204.374 101.648, 206.954 96.339, 206.697 95.686 C 206.439 95.034, 203.519 89.850, 200.207 84.166 L 194.187 73.831 189.946 81.166 M 14.258 98.250 C 13.035 99.798, 2 119, 2 119.579 C 2 119.811, 7.738 119.992, 14.750 119.983 L 27.500 119.966 33.750 109.110 C 37.188 103.139, 40 97.972, 40 97.627 C 40 97.282, 34.430 97, 27.622 97 C 18.914 97, 14.952 97.370, 14.258 98.250 M 36.204 107.878 C 32.792 113.861, 30 119.050, 30 119.408 C 30 119.767, 35.707 119.934, 42.682 119.780 L 55.364 119.500 61.682 108.617 C 65.157 102.632, 68 97.569, 68 97.367 C 68 97.165, 62.242 97, 55.204 97 L 42.408 97 36.204 107.878 M 65.703 104.750 C 63.244 109.013, 60.235 114.188, 59.017 116.250 L 56.802 120 69.814 120 L 82.825 120 87.535 111.750 C 90.126 107.213, 93.127 102.037, 94.204 100.250 L 96.163 97 83.169 97 L 70.175 97 65.703 104.750 M 94.648 102.250 C 92.817 105.138, 89.692 110.434, 87.703 114.019 L 84.086 120.539 89.904 130.831 C 93.105 136.492, 96.144 141.544, 96.659 142.059 C 97.873 143.273, 110.390 121.459, 109.625 119.465 C 109.317 118.663, 106.562 113.671, 103.501 108.369 C 100.440 103.068, 98.122 98.545, 98.350 98.317 C 98.577 98.090, 101.557 102.875, 104.973 108.952 L 111.183 120 124.341 119.985 C 131.579 119.976, 137.977 119.639, 138.560 119.235 C 139.142 118.831, 142.379 113.662, 145.753 107.750 L 151.886 97 138.908 97 C 126.843 97, 125.996 97.124, 126.869 98.755 C 127.386 99.721, 130.116 104.506, 132.936 109.390 C 135.757 114.273, 137.878 118.455, 137.651 118.683 C 137.423 118.910, 134.443 114.125, 131.027 108.048 L 124.817 97 111.396 97 L 97.975 97 94.648 102.250 M 173.996 108.669 C 170.553 114.626, 167.736 119.950, 167.736 120.500 C 167.736 121.050, 170.553 126.374, 173.996 132.331 L 180.256 143.161 186.606 132.331 C 190.098 126.374, 192.956 121.050, 192.956 120.500 C 192.956 119.950, 190.098 114.626, 186.606 108.669 L 180.256 97.839 173.996 108.669 M 230 107.667 C 226.975 112.961, 224.118 118.072, 223.651 119.026 C 223.026 120.302, 224.436 123.594, 228.981 131.467 C 232.380 137.355, 234.963 142.371, 234.721 142.612 C 234.479 142.854, 231.441 138.090, 227.970 132.026 L 221.659 121 208.404 121 L 195.149 121 201.706 132.527 L 208.264 144.055 221.843 143.777 L 235.422 143.500 242.156 132.029 L 248.890 120.558 247.068 117.529 C 246.066 115.863, 243.126 110.787, 240.535 106.250 C 237.945 101.713, 235.752 98.009, 235.662 98.021 C 235.573 98.033, 233.025 102.373, 230 107.667 M 2 121.622 C 2 121.964, 4.792 127.139, 8.204 133.122 L 14.408 144 27.630 144 L 40.851 144 34.309 132.500 L 27.767 121 14.884 121 C 7.798 121, 2 121.280, 2 121.622 M 31.258 125.250 C 32.604 127.588, 35.592 132.762, 37.897 136.750 L 42.088 144 55.044 144 C 62.170 144, 68 143.765, 68 143.477 C 68 143.189, 65.188 138.019, 61.750 131.988 L 55.500 121.023 42.155 121.011 L 28.810 121 31.258 125.250 M 57.079 121.750 C 57.123 122.162, 59.943 127.225, 63.346 133 L 69.534 143.500 82.808 143.779 L 96.082 144.059 94.462 140.927 C 93.571 139.204, 90.610 134.016, 87.882 129.397 L 82.923 121 69.961 121 C 62.833 121, 57.036 121.338, 57.079 121.750 M 141.091 123.221 C 141.748 124.474, 144.722 129.662, 147.701 134.750 L 153.117 144 166.058 144 C 173.176 144, 179 143.802, 179 143.561 C 179 143.320, 176.158 138.257, 172.686 132.311 L 166.371 121.500 153.135 121.221 L 139.898 120.941 141.091 123.221" stroke="none" fill="#5162b0" fill-rule="evenodd"/></svg>