<svg xmlns="http://www.w3.org/2000/svg" width="400" height="400" viewBox="0 0 400 400" version="1.1"><path d="M 129.288 87.353 L 66.075 123.500 66.038 156.776 L 66 190.051 68.750 188.612 C 70.263 187.821, 87.475 177.910, 107 166.588 L 142.500 146.003 142.755 233.414 L 143.011 320.825 167.677 335.162 C 181.243 343.048, 192.716 349.650, 193.171 349.833 C 193.627 350.017, 194 282.854, 194 200.583 C 194 118.312, 193.662 51.046, 193.250 51.103 C 192.838 51.160, 164.054 67.473, 129.288 87.353 M 206 200.525 L 206 350.198 209.250 348.306 C 211.037 347.266, 222.512 340.626, 234.750 333.551 L 257 320.686 257 278.843 C 257 255.829, 257.163 237, 257.363 237 C 257.562 237, 265.886 241.725, 275.859 247.500 C 285.832 253.275, 294.226 258, 294.511 258 C 294.797 258, 294.911 245.081, 294.765 229.290 L 294.500 200.580 276 190.001 L 257.500 179.421 257.225 162.623 L 256.951 145.825 262.725 149.124 C 265.901 150.939, 283.125 160.888, 301 171.234 L 333.500 190.044 333.764 157.336 C 333.909 139.346, 333.684 124.295, 333.264 123.889 C 332.670 123.315, 241.882 71.181, 211.750 54.111 L 206 50.853 206 200.525" stroke="none" fill="#fc8b04" fill-rule="evenodd"/><path d="M -0 200.002 L -0 400.005 200.250 399.752 L 400.500 399.500 400.752 199.750 L 401.005 0 200.502 0 L 0 0 -0 200.002 M 0.490 200.500 C 0.490 310.500, 0.607 355.352, 0.750 300.170 C 0.893 244.989, 0.893 154.989, 0.750 100.170 C 0.607 45.352, 0.490 90.500, 0.490 200.500 M 129.288 87.353 L 66.075 123.500 66.038 156.776 L 66 190.051 68.750 188.612 C 70.263 187.821, 87.475 177.910, 107 166.588 L 142.500 146.003 142.755 233.414 L 143.011 320.825 167.677 335.162 C 181.243 343.048, 192.716 349.650, 193.171 349.833 C 193.627 350.017, 194 282.854, 194 200.583 C 194 118.312, 193.662 51.046, 193.250 51.103 C 192.838 51.160, 164.054 67.473, 129.288 87.353 M 206 200.525 L 206 350.198 209.250 348.306 C 211.037 347.266, 222.512 340.626, 234.750 333.551 L 257 320.686 257 278.843 C 257 255.829, 257.163 237, 257.363 237 C 257.562 237, 265.886 241.725, 275.859 247.500 C 285.832 253.275, 294.226 258, 294.511 258 C 294.797 258, 294.911 245.081, 294.765 229.290 L 294.500 200.580 276 190.001 L 257.500 179.421 257.225 162.623 L 256.951 145.825 262.725 149.124 C 265.901 150.939, 283.125 160.888, 301 171.234 L 333.500 190.044 333.764 157.336 C 333.909 139.346, 333.684 124.295, 333.264 123.889 C 332.670 123.315, 241.882 71.181, 211.750 54.111 L 206 50.853 206 200.525" stroke="none" fill="#fcfbfb" fill-rule="evenodd"/></svg>